<?xml version="1.0" encoding="utf-8"?>
<!-- Generator: Adobe Illustrator 19.1.0, SVG Export Plug-In . SVG Version: 6.00 Build 0)  -->
<svg version="1.1" id="Layer_1" xmlns="http://www.w3.org/2000/svg" xmlns:xlink="http://www.w3.org/1999/xlink" x="0px" y="0px"
	 width="505.1px" height="195.8px" viewBox="0 0 505.1 195.8" style="enable-background:new 0 0 505.1 195.8;" xml:space="preserve"
	>
<style type="text/css">
	.st0{opacity:0.75;}
	.st1{opacity:0.1;clip-path:url(#SVGID_2_);}
	.st2{clip-path:url(#SVGID_4_);}
	.st3{clip-path:url(#SVGID_6_);fill:#FFFFFF;}
	.st4{opacity:0.3;clip-path:url(#SVGID_2_);}
	.st5{clip-path:url(#SVGID_8_);}
	.st6{clip-path:url(#SVGID_10_);fill:#FFFFFF;}
	.st7{opacity:0.5;clip-path:url(#SVGID_2_);}
	.st8{clip-path:url(#SVGID_12_);}
	.st9{clip-path:url(#SVGID_14_);fill:#FFFFFF;}
	.st10{opacity:0.7;clip-path:url(#SVGID_2_);}
	.st11{clip-path:url(#SVGID_16_);}
	.st12{clip-path:url(#SVGID_18_);fill:#FFFFFF;}
	.st13{opacity:0.9;clip-path:url(#SVGID_2_);}
	.st14{clip-path:url(#SVGID_20_);}
	.st15{clip-path:url(#SVGID_22_);fill:#FFFFFF;}
	.st16{clip-path:url(#SVGID_2_);fill:#FFFFFF;}
</style>
<g class="st0">
	<g>
		<g>
			<defs>
				<rect id="SVGID_1_" y="-0.1" width="505.1" height="195.7"/>
			</defs>
			<clipPath id="SVGID_2_">
				<use xlink:href="#SVGID_1_"  style="overflow:visible;"/>
			</clipPath>
			<g class="st1">
				<g>
					<defs>
						<rect id="SVGID_3_" y="-0.1" width="505.1" height="503.5"/>
					</defs>
					<clipPath id="SVGID_4_">
						<use xlink:href="#SVGID_3_"  style="overflow:visible;"/>
					</clipPath>
					<g class="st2">
						<defs>
							<rect id="SVGID_5_" y="-0.1" width="505.1" height="503.5"/>
						</defs>
						<clipPath id="SVGID_6_">
							<use xlink:href="#SVGID_5_"  style="overflow:visible;"/>
						</clipPath>
						<path class="st3" d="M232.2,503.4L232.2,503.4c-4.3-0.4-7.5-4.1-7.2-8.4c0.4-4.3,4.1-7.5,8.4-7.2c4.3,0.3,7.5,4.1,7.2,8.4
							c-0.3,4.1-3.7,7.2-7.8,7.2C232.6,503.4,232.4,503.4,232.2,503.4 M265.5,496.2c-0.4-4.3,2.8-8.1,7.1-8.4
							c4.3-0.4,8.1,2.8,8.5,7.1c0.4,4.3-2.8,8.1-7.1,8.5c-0.2,0-0.4,0-0.7,0C269.2,503.3,265.8,500.3,265.5,496.2 M191.1,496.7
							L191.1,496.7c-4.2-1.1-6.7-5.3-5.7-9.5c1-4.2,5.3-6.7,9.5-5.7c4.2,1.1,6.7,5.3,5.7,9.5c-0.9,3.5-4.1,5.9-7.6,5.9
							C192.3,496.9,191.7,496.8,191.1,496.7 M305.5,490.8c-1.1-4.2,1.5-8.4,5.6-9.5c4.2-1.1,8.4,1.5,9.5,5.6
							c1.1,4.2-1.5,8.4-5.6,9.5c-0.6,0.2-1.3,0.3-1.9,0.3C309.6,496.7,306.4,494.3,305.5,490.8 M151.6,483.2c-4-1.7-5.8-6.3-4-10.3
							c1.7-4,6.3-5.8,10.3-4c4,1.7,5.8,6.3,4,10.3c-1.3,2.9-4.1,4.7-7.2,4.7C153.6,483.9,152.6,483.7,151.6,483.2 M344.1,478.8
							c-1.7-3.9,0-8.6,4-10.3c4-1.8,8.6,0,10.3,4c1.8,4,0,8.6-4,10.3c-1,0.4-2.1,0.7-3.2,0.7C348.3,483.5,345.4,481.7,344.1,478.8
							 M114.9,463.4c-3.6-2.4-4.6-7.2-2.3-10.8c2.4-3.6,7.2-4.6,10.8-2.3c3.6,2.4,4.6,7.2,2.3,10.8c-1.5,2.3-4,3.5-6.6,3.5
							C117.7,464.7,116.2,464.3,114.9,463.4 M380.2,460.6c-2.4-3.6-1.4-8.5,2.3-10.8c3.6-2.4,8.5-1.4,10.8,2.3
							c2.4,3.6,1.4,8.5-2.2,10.8c-1.3,0.9-2.8,1.3-4.3,1.3C384.2,464.2,381.7,462.9,380.2,460.6 M81.9,437.9
							c-3.2-2.9-3.4-7.9-0.5-11c2.9-3.2,7.9-3.4,11-0.5v0c3.2,2.9,3.4,7.9,0.5,11c-1.5,1.7-3.7,2.5-5.8,2.5
							C85.3,439.9,83.4,439.2,81.9,437.9 M412.8,436.8c-2.9-3.2-2.7-8.1,0.4-11h0c3.2-2.9,8.1-2.7,11,0.4c2.9,3.2,2.7,8.1-0.4,11.1
							c-1.5,1.4-3.4,2.1-5.3,2.1C416.5,439.3,414.4,438.4,412.8,436.8 M53.6,407.3c-2.7-3.4-2.1-8.3,1.3-11c3.4-2.7,8.3-2.1,11,1.3
							c2.7,3.4,2.1,8.3-1.3,11c-1.4,1.1-3.1,1.7-4.8,1.7C57.4,410.2,55.1,409.2,53.6,407.3 M441.1,407.9c-3.4-2.6-4-7.6-1.4-11v0
							c2.7-3.4,7.6-4,11-1.4c3.4,2.7,4,7.6,1.4,11c-1.5,2-3.9,3-6.2,3C444.2,409.5,442.5,409,441.1,407.9 M30.7,372.4L30.7,372.4
							c-2.1-3.8-0.7-8.5,3.1-10.6c3.8-2.1,8.5-0.7,10.6,3.1c2.1,3.8,0.7,8.5-3.1,10.6c-1.2,0.6-2.5,1-3.7,1
							C34.8,376.5,32.1,375,30.7,372.4 M464.3,374.7c-3.8-2-5.2-6.8-3.2-10.6c2-3.8,6.8-5.2,10.6-3.2c3.8,2,5.2,6.8,3.2,10.6
							c-1.4,2.6-4.1,4.1-6.9,4.1C466.7,375.7,465.5,375.3,464.3,374.7 M13.8,334.3c-1.4-4.1,0.7-8.5,4.8-9.9c4.1-1.4,8.5,0.8,10,4.8
							c1.4,4.1-0.8,8.5-4.8,10c-0.8,0.3-1.7,0.4-2.6,0.4C18,339.6,14.9,337.5,13.8,334.3 M481.7,338.2c-4.1-1.4-6.3-5.8-4.9-9.9
							c1.4-4.1,5.8-6.3,9.9-4.9c4.1,1.4,6.3,5.8,4.9,9.9v0c-1.1,3.3-4.2,5.3-7.4,5.3C483.3,338.6,482.5,338.5,481.7,338.2
							 M3.5,293.9L3.5,293.9c-0.7-4.3,2.2-8.3,6.4-9c4.3-0.7,8.3,2.2,9,6.4c0.7,4.3-2.2,8.3-6.4,9c-0.4,0.1-0.9,0.1-1.3,0.1
							C7.5,300.4,4.1,297.7,3.5,293.9 M492.8,299.3c-4.3-0.7-7.2-4.7-6.5-9c0.7-4.3,4.7-7.2,9-6.5s7.1,4.7,6.5,9
							c-0.6,3.8-4,6.6-7.7,6.6C493.6,299.4,493.2,299.4,492.8,299.3 M0,252.4v-0.3v-0.4c0-4.3,3.5-7.8,7.8-7.8
							c4.3,0,7.8,3.5,7.8,7.8v0.3v0.3c0,4.3-3.5,7.8-7.8,7.8h0C3.5,260.2,0,256.7,0,252.4 M489.4,251.4L489.4,251.4
							c0-4.3,3.5-7.8,7.8-7.8c4.3,0,7.8,3.5,7.8,7.8c0,4.3-3.5,7.8-7.8,7.8C492.9,259.2,489.4,255.7,489.4,251.4 M9.8,219.1
							c-4.3-0.7-7.1-4.7-6.4-9c0.7-4.3,4.7-7.1,9-6.4c4.3,0.7,7.1,4.7,6.4,9c-0.6,3.8-3.9,6.5-7.7,6.5
							C10.7,219.2,10.3,219.2,9.8,219.1 M486.2,212.4c-0.7-4.3,2.2-8.3,6.4-9c4.3-0.7,8.3,2.2,9,6.4c0.7,4.3-2.2,8.3-6.4,9
							c-0.4,0.1-0.9,0.1-1.3,0.1C490.1,218.9,486.8,216.2,486.2,212.4 M18.5,179.6c-4.1-1.4-6.3-5.8-4.9-9.9
							c1.4-4.1,5.8-6.3,9.9-4.8c4.1,1.4,6.3,5.8,4.8,9.9c-1.1,3.2-4.1,5.3-7.4,5.3C20.2,180.1,19.3,179.9,18.5,179.6 M476.6,174.5
							L476.6,174.5c-1.4-4.1,0.8-8.5,4.8-9.9c4.1-1.4,8.5,0.8,9.9,4.9c1.4,4.1-0.8,8.5-4.8,9.9c-0.8,0.3-1.7,0.4-2.5,0.4
							C480.7,179.7,477.7,177.7,476.6,174.5 M33.5,142.1c-3.8-2.1-5.2-6.8-3.2-10.6c2.1-3.8,6.8-5.2,10.6-3.1
							c3.8,2.1,5.2,6.8,3.1,10.6c-1.4,2.6-4.1,4.1-6.9,4.1C36,143,34.7,142.7,33.5,142.1 M460.8,138.7c-2.1-3.8-0.7-8.5,3.1-10.6
							c3.8-2.1,8.5-0.7,10.6,3.1c2.1,3.8,0.7,8.6-3.1,10.6c-1.2,0.7-2.5,1-3.7,1C464.9,142.8,462.2,141.3,460.8,138.7 M54.6,107.6
							c-3.4-2.6-4-7.6-1.4-11c2.6-3.4,7.6-4,11-1.4c3.4,2.7,4,7.6,1.4,11c-1.5,2-3.8,3-6.2,3C57.7,109.2,56,108.7,54.6,107.6
							 M439.4,106c-2.7-3.4-2.1-8.3,1.3-11c3.4-2.6,8.3-2,11,1.4c2.7,3.4,2.1,8.3-1.4,11c-1.4,1.1-3.1,1.7-4.8,1.7
							C443.2,109,440.9,108,439.4,106 M81,77c-2.9-3.2-2.7-8.1,0.4-11c3.2-2.9,8.1-2.7,11,0.4c2.9,3.2,2.7,8.1-0.4,11.1
							c-1.5,1.4-3.4,2.1-5.3,2.1C84.6,79.5,82.5,78.6,81,77 M412.8,77.2c-3.2-2.9-3.4-7.9-0.5-11.1c2.9-3.2,7.9-3.4,11.1-0.5
							c3.2,2.9,3.4,7.9,0.5,11c-1.5,1.7-3.7,2.5-5.8,2.5C416.2,79.3,414.3,78.6,412.8,77.2 M112.1,51.1c-2.4-3.6-1.4-8.5,2.3-10.8
							c3.6-2.4,8.5-1.4,10.8,2.3c2.4,3.6,1.4,8.5-2.3,10.8c-1.3,0.9-2.8,1.3-4.3,1.3C116.1,54.6,113.6,53.4,112.1,51.1 M382,53.2
							c-3.6-2.4-4.6-7.2-2.3-10.8c2.4-3.6,7.2-4.6,10.8-2.3c3.6,2.4,4.6,7.2,2.3,10.8c-1.5,2.3-4,3.5-6.5,3.5
							C384.8,54.5,383.3,54.1,382,53.2 M146.9,30.7c-1.7-4,0.1-8.6,4-10.3c4-1.7,8.6,0,10.3,4c1.7,4,0,8.6-4,10.3
							c-1,0.5-2.1,0.7-3.1,0.7C151.1,35.4,148.2,33.6,146.9,30.7 M347.5,34.6L347.5,34.6c-4-1.7-5.8-6.4-4-10.3
							c1.7-4,6.4-5.8,10.3-4c4,1.7,5.8,6.3,4,10.3c-1.3,2.9-4.1,4.7-7.2,4.7C349.6,35.2,348.6,35,347.5,34.6 M184.7,16.3
							c-1.1-4.2,1.5-8.4,5.7-9.5c4.2-1.1,8.4,1.5,9.5,5.7c1.1,4.2-1.5,8.4-5.7,9.5c-0.6,0.2-1.3,0.2-1.9,0.2
							C188.8,22.2,185.6,19.9,184.7,16.3 M310.5,21.9L310.5,21.9c-4.2-1.1-6.7-5.3-5.7-9.5c1-4.2,5.3-6.7,9.5-5.7v0
							c4.2,1.1,6.7,5.3,5.7,9.5c-0.9,3.5-4.1,5.9-7.6,5.9C311.8,22.2,311.2,22.1,310.5,21.9 M224.4,8.4c-0.4-4.3,2.9-8.1,7.2-8.4
							c4.3-0.4,8.1,2.8,8.4,7.1c0.4,4.3-2.9,8.1-7.2,8.4c-0.2,0-0.4,0-0.7,0C228.1,15.6,224.7,12.5,224.4,8.4 M271.9,15.5
							c-4.3-0.4-7.5-4.1-7.2-8.4c0.3-4.3,4.1-7.5,8.4-7.2c4.3,0.4,7.5,4.1,7.2,8.4c-0.3,4.1-3.8,7.2-7.8,7.2
							C272.4,15.6,272.2,15.6,271.9,15.5"/>
					</g>
				</g>
			</g>
			<g class="st4">
				<g>
					<defs>
						<rect id="SVGID_7_" x="26.9" y="25.6" width="451.3" height="452.2"/>
					</defs>
					<clipPath id="SVGID_8_">
						<use xlink:href="#SVGID_7_"  style="overflow:visible;"/>
					</clipPath>
					<g class="st5">
						<defs>
							<rect id="SVGID_9_" x="26.9" y="25.6" width="451.3" height="452.2"/>
						</defs>
						<clipPath id="SVGID_10_">
							<use xlink:href="#SVGID_9_"  style="overflow:visible;"/>
						</clipPath>
						<path class="st6" d="M241.5,469.9c0-4.3,3.6-7.8,7.9-7.7v0c4.3,0,7.8,3.6,7.7,7.9c0,4.3-3.6,7.8-7.9,7.7
							C244.9,477.7,241.5,474.2,241.5,469.9 M277.6,468.7c-0.6-4.3,2.3-8.3,6.6-8.9v0c4.3-0.6,8.3,2.3,8.9,6.6
							c0.6,4.3-2.3,8.3-6.6,8.9c-0.4,0.1-0.8,0.1-1.2,0.1C281.5,475.3,278.1,472.6,277.6,468.7 M212.1,474.2
							c-4.3-0.8-7.1-4.8-6.3-9.1c0.8-4.3,4.8-7.1,9.1-6.3c4.3,0.8,7.1,4.8,6.3,9.1c-0.7,3.8-4,6.4-7.7,6.4
							C213,474.3,212.5,474.3,212.1,474.2 M312.9,461.7c-1.3-4.1,0.9-8.5,5-9.9c4.1-1.3,8.5,0.9,9.9,5c1.3,4.1-0.9,8.5-5,9.9
							c-0.8,0.3-1.6,0.4-2.4,0.4C317.1,467.1,314,465,312.9,461.7 M176,464.5L176,464.5c-4.1-1.5-6.2-5.9-4.7-10
							c1.5-4.1,5.9-6.2,10-4.7c4.1,1.5,6.2,5.9,4.7,10c-1.1,3.2-4.2,5.2-7.4,5.2C177.8,465,176.9,464.8,176,464.5 M346.7,448.9
							c-2-3.8-0.5-8.5,3.3-10.6c3.8-2,8.6-0.5,10.6,3.3c2,3.8,0.5,8.5-3.3,10.6c-1.1,0.6-2.4,0.9-3.6,0.9
							C350.8,453.1,348.1,451.5,346.7,448.9 M142,449c-3.8-2.1-5.1-6.9-3-10.7c2.1-3.8,6.9-5.1,10.7-3c3.8,2.1,5.1,6.9,3,10.7
							c-1.4,2.6-4.1,4-6.8,4C144.5,450,143.2,449.7,142,449 M377.8,430.7c-2.6-3.4-1.9-8.4,1.5-11v0c3.4-2.6,8.4-1.9,11,1.5
							c2.6,3.4,1.9,8.4-1.5,11v0c-1.4,1.1-3.1,1.6-4.7,1.6C381.7,433.8,379.3,432.7,377.8,430.7 M111.1,428.1
							c-3.4-2.7-3.9-7.6-1.2-11c2.7-3.4,7.6-3.9,11-1.2c3.4,2.7,3.9,7.6,1.2,11c-1.5,1.9-3.8,2.9-6.1,2.9
							C114.3,429.8,112.5,429.3,111.1,428.1 M405.5,407.6c-3.1-3-3.3-7.9-0.3-11.1c3-3.1,7.9-3.3,11.1-0.3c3.1,3,3.3,7.9,0.3,11.1
							c-1.5,1.6-3.6,2.4-5.7,2.4C409,409.7,407,409,405.5,407.6 M84,402.4L84,402.4c-2.9-3.2-2.6-8.2,0.6-11
							c3.2-2.9,8.2-2.6,11.1,0.6c2.9,3.2,2.6,8.2-0.6,11c-1.5,1.3-3.4,2-5.2,2C87.7,405,85.5,404.2,84,402.4 M429.1,380.3
							c-3.6-2.4-4.5-7.3-2.1-10.9c2.4-3.6,7.3-4.5,10.9-2.1c3.6,2.4,4.5,7.3,2.1,10.9c-1.5,2.3-4,3.4-6.5,3.4
							C432,381.6,430.4,381.2,429.1,380.3 M61.4,372.7c-2.3-3.7-1.2-8.5,2.4-10.8c3.6-2.3,8.5-1.2,10.8,2.4
							c2.3,3.7,1.2,8.5-2.4,10.8c-1.3,0.8-2.7,1.2-4.2,1.2C65.5,376.3,62.9,375,61.4,372.7 M447.9,349.5c-3.9-1.8-5.7-6.4-3.9-10.4
							v0c1.8-3.9,6.4-5.6,10.4-3.8c3.9,1.8,5.7,6.4,3.9,10.4c-1.3,2.9-4.1,4.6-7.1,4.6C450,350.2,448.9,350,447.9,349.5 M44.1,339.6
							c-1.7-4,0.2-8.6,4.2-10.3c4-1.7,8.6,0.2,10.3,4.2c1.7,4-0.2,8.6-4.2,10.3c-1,0.4-2,0.6-3,0.6
							C48.3,344.4,45.4,342.6,44.1,339.6 M461.3,316c-4.2-1.1-6.6-5.4-5.5-9.6c1.1-4.2,5.4-6.6,9.6-5.5c4.2,1.1,6.6,5.4,5.5,9.6
							c-0.9,3.5-4.1,5.8-7.6,5.8C462.7,316.3,462,316.2,461.3,316 M32.5,304.1L32.5,304.1c-1-4.2,1.6-8.4,5.8-9.4
							c4.2-1,8.4,1.6,9.4,5.8c1,4.2-1.6,8.4-5.8,9.4c-0.6,0.1-1.2,0.2-1.8,0.2C36.6,310.1,33.4,307.7,32.5,304.1 M469.1,280.8
							c-4.3-0.4-7.4-4.2-7-8.6c0.4-4.3,4.2-7.4,8.5-7c4.3,0.4,7.5,4.2,7,8.6c-0.4,4-3.8,7.1-7.8,7.1
							C469.6,280.8,469.3,280.8,469.1,280.8 M26.9,267.2L26.9,267.2c0-0.1,0-0.2,0-0.3c0-0.1,0-0.2,0-0.3c-0.3-4.3,3-8.1,7.3-8.3
							c4.3-0.3,8,3,8.3,7.3c0,0.1,0,0.2,0,0.3c0,0.1,0,0.2,0,0.3c0.3,4.3-3,8.1-7.3,8.3c-0.2,0-0.4,0-0.5,0
							C30.7,274.5,27.2,271.3,26.9,267.2 M462.5,237.5c-0.3-4.3,3-8.1,7.3-8.3c4.3-0.3,8,3,8.3,7.3c0.3,4.3-3,8-7.3,8.3
							c-0.2,0-0.3,0-0.5,0C466.2,244.8,462.8,241.6,462.5,237.5 M34.5,237.8c-4.3-0.4-7.5-4.3-7-8.5c0.4-4.3,4.2-7.5,8.5-7
							c4.3,0.4,7.5,4.3,7,8.6c-0.4,4-3.8,7.1-7.8,7.1C35,237.9,34.8,237.9,34.5,237.8 M457.4,203.1c-1-4.2,1.6-8.4,5.8-9.4
							c4.2-1,8.4,1.6,9.4,5.8c1,4.2-1.6,8.4-5.8,9.4c-0.6,0.1-1.2,0.2-1.8,0.2C461.4,209.2,458.2,206.7,457.4,203.1 M39.7,202.2
							c-4.2-1.1-6.6-5.4-5.5-9.6v0c1.1-4.2,5.4-6.6,9.6-5.5c4.2,1.1,6.6,5.4,5.5,9.6c-0.9,3.5-4.1,5.8-7.5,5.8
							C41.1,202.4,40.4,202.3,39.7,202.2 M446.6,170.1c-1.7-4,0.2-8.6,4.2-10.2c4-1.7,8.6,0.2,10.2,4.2c1.7,4-0.2,8.6-4.2,10.3
							c-1,0.4-2,0.6-3,0.6C450.8,174.9,447.9,173.1,446.6,170.1 M50.8,167.8c-3.9-1.8-5.7-6.4-3.8-10.4c1.8-3.9,6.5-5.6,10.4-3.8
							c3.9,1.8,5.7,6.5,3.8,10.4c-1.3,2.9-4.1,4.6-7.1,4.6C52.9,168.5,51.8,168.3,50.8,167.8 M430.6,139.3L430.6,139.3
							c-2.3-3.7-1.2-8.5,2.4-10.8c3.7-2.3,8.5-1.2,10.8,2.4c2.3,3.7,1.2,8.5-2.4,10.8c-1.3,0.8-2.7,1.2-4.2,1.2
							C434.6,142.9,432,141.6,430.6,139.3 M67.4,135.8c-3.6-2.4-4.5-7.3-2.1-10.9c2.4-3.6,7.3-4.5,10.9-2.1
							c3.6,2.4,4.5,7.3,2.1,10.9c-1.5,2.2-4,3.4-6.5,3.4C70.2,137.1,68.7,136.7,67.4,135.8 M409.6,111.6c-2.9-3.2-2.6-8.2,0.6-11.1
							c3.2-2.9,8.2-2.6,11.1,0.6c2.9,3.2,2.6,8.2-0.6,11c-1.5,1.3-3.4,2-5.2,2C413.3,114.2,411.2,113.3,409.6,111.6 M89,106.9
							c-3.1-3-3.3-7.9-0.3-11.1c3-3.1,7.9-3.3,11.1-0.3c3.1,3,3.3,7.9,0.3,11.1h0c-1.5,1.6-3.6,2.4-5.7,2.4
							C92.4,109,90.5,108.3,89,106.9 M384.4,87.6c-3.4-2.7-3.9-7.6-1.2-11c2.7-3.4,7.6-3.9,11-1.2c3.4,2.7,3.9,7.6,1.2,11
							c-1.5,1.9-3.8,2.9-6.1,2.9C387.6,89.4,385.9,88.8,384.4,87.6 M115,81.9c-2.6-3.4-1.9-8.4,1.5-11c3.4-2.6,8.4-1.9,11,1.5
							c2.6,3.5,1.9,8.4-1.5,11c-1.4,1.1-3.1,1.6-4.7,1.6C118.9,85,116.5,84,115,81.9 M355.6,68.1L355.6,68.1
							c-3.8-2.1-5.1-6.9-3-10.7c2.1-3.8,6.9-5.1,10.7-3c3.8,2.1,5.1,6.9,3,10.7c-1.4,2.6-4.1,4-6.8,4
							C358.2,69.2,356.8,68.8,355.6,68.1 M144.8,61.6c-2-3.8-0.5-8.6,3.3-10.6c3.8-2,8.5-0.5,10.6,3.3c2,3.8,0.5,8.6-3.3,10.6
							c-1.1,0.6-2.4,0.9-3.6,0.9C148.9,65.8,146.2,64.3,144.8,61.6 M324,53.7L324,53.7c-4.1-1.5-6.2-6-4.7-10c1.5-4,5.9-6.2,10-4.7
							h0c4.1,1.5,6.2,6,4.7,10c-1.1,3.2-4.2,5.2-7.4,5.2C325.8,54.1,324.9,54,324,53.7 M177.5,46.5c-1.3-4.1,0.9-8.5,5-9.9
							c4.1-1.3,8.5,0.9,9.9,5c1.3,4.1-0.9,8.5-5,9.9c-0.8,0.3-1.6,0.4-2.4,0.4C181.7,51.9,178.6,49.8,177.5,46.5 M290.5,44.6
							c-4.3-0.8-7.1-4.8-6.3-9.1c0.8-4.3,4.9-7.1,9.1-6.3c4.3,0.8,7.1,4.8,6.3,9.1c-0.7,3.8-4,6.4-7.7,6.4
							C291.4,44.7,291,44.7,290.5,44.6 M212.3,36.9c-0.6-4.3,2.3-8.2,6.6-8.9c4.3-0.7,8.3,2.3,8.9,6.6c0.6,4.3-2.3,8.2-6.6,8.9
							c-0.4,0-0.8,0.1-1.2,0.1C216.2,43.6,212.9,40.8,212.3,36.9 M255.9,41.2L255.9,41.2c-4.3-0.1-7.8-3.6-7.7-7.9
							c0.1-4.3,3.6-7.8,7.9-7.7c4.3,0,7.8,3.6,7.7,7.9c-0.1,4.3-3.6,7.7-7.8,7.7H255.9z"/>
					</g>
				</g>
			</g>
			<g class="st7">
				<g>
					<defs>
						<rect id="SVGID_11_" x="51.4" y="50.8" width="402.3" height="401.8"/>
					</defs>
					<clipPath id="SVGID_12_">
						<use xlink:href="#SVGID_11_"  style="overflow:visible;"/>
					</clipPath>
					<g class="st8">
						<defs>
							<rect id="SVGID_13_" x="51.4" y="50.8" width="402.3" height="401.8"/>
						</defs>
						<clipPath id="SVGID_14_">
							<use xlink:href="#SVGID_13_"  style="overflow:visible;"/>
						</clipPath>
						<path class="st9" d="M255.9,445.2c-0.3-4.3,3-8,7.3-8.2c4.3-0.3,8,3,8.2,7.3c0.2,4.3-3,8-7.3,8.2c-0.2,0-0.3,0-0.5,0
							C259.6,452.6,256.2,449.4,255.9,445.2 M231,451.8c-4.3-0.5-7.4-4.3-6.9-8.6c0.4-4.3,4.3-7.4,8.6-6.9c4.3,0.5,7.4,4.3,6.9,8.6
							c-0.4,4-3.8,7-7.7,7C231.5,451.8,231.2,451.8,231,451.8 M287.8,442c-0.9-4.2,1.7-8.4,5.9-9.3c4.2-0.9,8.4,1.7,9.3,5.9
							c0.9,4.2-1.7,8.4-5.9,9.3c-0.6,0.1-1.2,0.2-1.7,0.2C291.8,448.1,288.6,445.6,287.8,442 M198.3,445.5L198.3,445.5
							c-4.1-1.2-6.6-5.5-5.4-9.6c1.2-4.1,5.5-6.6,9.6-5.4c4.1,1.2,6.6,5.5,5.4,9.6c-1,3.4-4.1,5.7-7.5,5.7
							C199.7,445.8,199,445.7,198.3,445.5 M318.6,433.6c-1.6-4,0.3-8.5,4.3-10.2h0c4-1.6,8.5,0.3,10.2,4.3c1.6,4-0.3,8.5-4.3,10.2
							c-1,0.4-2,0.6-2.9,0.6C322.8,438.5,319.8,436.7,318.6,433.6 M167.2,433.9L167.2,433.9c-3.9-1.8-5.6-6.5-3.7-10.4
							c1.8-3.9,6.5-5.6,10.4-3.7c3.9,1.8,5.6,6.5,3.7,10.4c-1.3,2.8-4.1,4.5-7,4.5C169.4,434.6,168.2,434.4,167.2,433.9
							 M347.7,420.3c-2.3-3.7-1.1-8.5,2.5-10.7c3.7-2.3,8.5-1.1,10.7,2.5c2.3,3.7,1.1,8.5-2.5,10.7c-1.3,0.8-2.7,1.2-4.1,1.2
							C351.7,424,349.1,422.7,347.7,420.3 M138.4,417.3L138.4,417.3c-3.6-2.4-4.4-7.3-2-10.8c2.4-3.5,7.3-4.4,10.8-2
							c3.5,2.4,4.4,7.3,2,10.8c-1.5,2.2-4,3.4-6.4,3.4C141.2,418.7,139.7,418.3,138.4,417.3 M374.1,402.3c-2.8-3.2-2.5-8.2,0.7-11
							c3.2-2.9,8.2-2.5,11,0.7c2.8,3.2,2.5,8.1-0.7,11c-1.5,1.3-3.3,1.9-5.1,1.9C377.8,405,375.6,404.1,374.1,402.3 M112.6,396.3
							c-3.1-3-3.2-7.9-0.2-11c3-3.1,7.9-3.2,11-0.2c3.1,3,3.2,7.9,0.2,11c-1.5,1.6-3.6,2.4-5.6,2.4
							C116.1,398.5,114.2,397.7,112.6,396.3 M397.2,380.3c-3.3-2.7-3.8-7.6-1.1-11c2.7-3.3,7.6-3.8,11-1.1c3.3,2.7,3.8,7.6,1.1,11
							c-1.5,1.9-3.8,2.9-6,2.9C400.4,382,398.7,381.4,397.2,380.3 M90.7,371.3c-2.6-3.5-1.8-8.3,1.6-10.9c3.5-2.6,8.3-1.8,10.9,1.6
							c2.6,3.5,1.8,8.3-1.6,10.9c-1.4,1-3,1.5-4.6,1.5C94.6,374.5,92.3,373.4,90.7,371.3 M416.4,354.7c-3.7-2.1-5-6.9-2.9-10.6h0
							c2.2-3.7,6.9-5,10.7-2.9c3.7,2.1,5,6.9,2.9,10.6c-1.5,2.5-4.1,3.9-6.8,3.9C419,355.7,417.6,355.4,416.4,354.7 M73.2,343
							L73.2,343c-2-3.8-0.4-8.5,3.4-10.5c3.8-2,8.5-0.4,10.5,3.4c1.9,3.8,0.4,8.5-3.4,10.5c-1.1,0.6-2.3,0.8-3.5,0.8
							C77.3,347.3,74.6,345.8,73.2,343 M431.2,326.3c-4-1.5-6.1-6-4.6-10c1.5-4,6-6.1,10-4.6c4,1.5,6.1,6,4.6,10
							c-1.2,3.1-4.1,5.1-7.3,5.1C433,326.8,432,326.6,431.2,326.3 M60.6,312.3c-1.3-4.1,1-8.5,5.1-9.8c4.1-1.3,8.5,1,9.8,5.1
							c1.3,4.1-1,8.5-5.1,9.8c-0.8,0.2-1.6,0.4-2.3,0.4C64.8,317.7,61.7,315.6,60.6,312.3 M441,295.9c-4.2-0.8-7-4.9-6.2-9.1
							c0.8-4.2,4.9-7,9.1-6.2c4.2,0.8,7,4.9,6.2,9.1c-0.7,3.7-4,6.3-7.6,6.3C442,296,441.5,296,441,295.9 M53.3,279.9L53.3,279.9
							L53.3,279.9c-0.6-4.3,2.4-8.3,6.6-8.9c4.3-0.6,8.2,2.4,8.8,6.6v0v0c0,0,0,0,0,0c0,0.1,0,0.2,0,0.3c0.4,4.2-2.5,8-6.6,8.5
							c-0.4,0-0.7,0.1-1.1,0.1C57.2,286.6,53.9,283.8,53.3,279.9 M445.7,264.3c-4.3-0.1-7.7-3.7-7.6-8h0c0.1-4.3,3.7-7.7,8-7.6
							c4.3,0.1,7.7,3.7,7.6,8h0c-0.1,4.2-3.6,7.6-7.8,7.6H445.7z M59,254.6c-4.3-0.1-7.7-3.7-7.6-8v0c0.1-4.3,3.7-7.7,8-7.6
							c4.3,0.1,7.7,3.7,7.6,8c-0.1,4.2-3.6,7.6-7.8,7.6H59z M436.3,225.7c-0.6-4.3,2.4-8.2,6.6-8.8c4.3-0.6,8.2,2.4,8.8,6.6
							c0.6,4.3-2.4,8.2-6.6,8.8c-0.4,0-0.7,0.1-1.1,0.1C440.2,232.4,436.9,229.6,436.3,225.7 M61.1,222.7c-4.2-0.8-7-4.9-6.2-9.1
							c0.8-4.2,4.9-7,9.1-6.2c4.2,0.8,7,4.9,6.2,9.1c-0.7,3.7-4,6.3-7.6,6.3C62.1,222.9,61.6,222.8,61.1,222.7 M429.6,195.8
							c-1.3-4.1,1-8.5,5.1-9.8c4.1-1.3,8.5,1,9.8,5.1c1.3,4.1-1,8.5-5.1,9.8c-0.8,0.2-1.6,0.3-2.3,0.3
							C433.7,201.2,430.6,199.1,429.6,195.8 M68.5,191.6c-4-1.5-6.1-6-4.6-10c1.5-4,6-6.1,10-4.6c4,1.5,6.1,6,4.6,10
							c-1.2,3.1-4.1,5.1-7.3,5.1C70.3,192.1,69.4,191.9,68.5,191.6 M418,167.4c-1.9-3.8-0.4-8.5,3.4-10.5c3.8-1.9,8.5-0.4,10.5,3.4
							c2,3.8,0.4,8.5-3.4,10.5c-1.1,0.6-2.3,0.8-3.5,0.8C422.1,171.7,419.4,170.1,418,167.4 M80.9,162.1c-3.7-2.1-5-6.9-2.9-10.6
							c2.2-3.7,6.9-5,10.7-2.9c3.7,2.1,5,6.9,2.9,10.6c-1.4,2.5-4.1,3.9-6.8,3.9C83.5,163.2,82.1,162.8,80.9,162.1 M401.8,141.3
							c-2.6-3.5-1.8-8.3,1.6-10.9c3.5-2.6,8.3-1.8,10.9,1.6c2.5,3.5,1.8,8.3-1.6,10.9c-1.4,1-3,1.5-4.6,1.5
							C405.7,144.5,403.4,143.4,401.8,141.3 M98,135.1c-3.3-2.7-3.8-7.6-1.1-11c2.7-3.3,7.6-3.8,11-1.1c3.3,2.7,3.8,7.6,1.1,11
							c-1.5,1.9-3.8,2.9-6,2.9C101.2,136.9,99.4,136.3,98,135.1 M381.6,118.3L381.6,118.3c-3.1-3-3.2-7.9-0.2-11
							c3-3.1,7.9-3.2,11-0.2c3.1,3,3.2,7.9,0.2,11c-1.5,1.6-3.6,2.4-5.6,2.4C385.1,120.5,383.1,119.8,381.6,118.3 M119.3,111.3
							c-2.8-3.2-2.5-8.2,0.7-11c3.2-2.8,8.2-2.5,11,0.7c2.8,3.2,2.5,8.2-0.7,11c-1.5,1.3-3.3,1.9-5.1,1.9
							C123,113.9,120.8,113,119.3,111.3 M357.9,98.9c-3.5-2.5-4.4-7.3-2-10.8c2.4-3.5,7.3-4.4,10.8-2c3.5,2.4,4.4,7.3,2,10.8
							c-1.5,2.2-4,3.4-6.4,3.4C360.8,100.2,359.3,99.8,357.9,98.9 M144.2,91.2c-2.3-3.7-1.1-8.5,2.5-10.7c3.7-2.3,8.5-1.1,10.7,2.5
							c2.3,3.7,1.1,8.5-2.5,10.7c-1.3,0.8-2.7,1.2-4.1,1.2C148.2,94.9,145.7,93.6,144.2,91.2 M331.3,83.6c-3.9-1.8-5.6-6.5-3.7-10.4
							c1.8-3.9,6.5-5.6,10.4-3.7c3.9,1.8,5.6,6.5,3.7,10.4c-1.3,2.8-4.1,4.5-7.1,4.5C333.5,84.3,332.4,84.1,331.3,83.6 M172,75.6
							c-1.6-4,0.3-8.5,4.3-10.2c4-1.6,8.5,0.3,10.2,4.3c1.6,4-0.3,8.5-4.3,10.2c-1,0.4-2,0.6-2.9,0.6
							C176.2,80.4,173.3,78.6,172,75.6 M302.6,72.9c-4.1-1.2-6.6-5.5-5.4-9.6c1.2-4.1,5.5-6.6,9.6-5.4c4.1,1.2,6.6,5.5,5.4,9.6
							c-1,3.4-4.1,5.7-7.5,5.7C304,73.2,303.3,73.1,302.6,72.9 M202.1,64.8c-0.9-4.2,1.7-8.4,5.9-9.3c4.2-0.9,8.4,1.7,9.3,5.9
							c0.9,4.2-1.7,8.4-5.9,9.3c-0.6,0.1-1.2,0.2-1.7,0.2C206.2,70.8,203,68.4,202.1,64.8 M272.5,67.1c-4.3-0.4-7.4-4.3-6.9-8.6
							c0.5-4.3,4.3-7.4,8.6-6.9c4.3,0.4,7.4,4.3,6.9,8.6c-0.4,4-3.8,7-7.8,7C273,67.1,272.8,67.1,272.5,67.1 M233.6,59
							c-0.3-4.3,3-8,7.3-8.2c4.3-0.3,8,3,8.2,7.3c0.3,4.3-3,8-7.3,8.2h-0.5C237.3,66.4,233.8,63.2,233.6,59"/>
					</g>
				</g>
			</g>
			<g class="st10">
				<g>
					<defs>
						<rect id="SVGID_15_" x="75" y="74" width="355" height="355.4"/>
					</defs>
					<clipPath id="SVGID_16_">
						<use xlink:href="#SVGID_15_"  style="overflow:visible;"/>
					</clipPath>
					<g class="st11">
						<defs>
							<rect id="SVGID_17_" x="75" y="74" width="355" height="355.4"/>
						</defs>
						<clipPath id="SVGID_18_">
							<use xlink:href="#SVGID_17_"  style="overflow:visible;"/>
						</clipPath>
						<path class="st12" d="M247.9,429.4c-4.3-0.1-7.7-3.7-7.6-8c0.1-4.3,3.7-7.7,8-7.6l0,0c4.3,0.1,7.7,3.7,7.6,8
							c-0.1,4.2-3.6,7.6-7.8,7.6H247.9z M268.4,421.1c-0.6-4.3,2.4-8.2,6.6-8.8c4.3-0.6,8.2,2.4,8.8,6.6c0.6,4.3-2.4,8.2-6.6,8.8
							c-0.4,0-0.7,0.1-1.1,0.1C272.2,427.8,268.9,425,268.4,421.1 M218.7,426.2c-4.2-0.8-7-4.9-6.2-9.1c0.8-4.2,4.9-7,9.1-6.2
							c4.2,0.8,7,4.9,6.1,9.1c-0.7,3.7-4,6.3-7.6,6.3C219.7,426.3,219.2,426.3,218.7,426.2 M296,416.1c-1.3-4.1,1-8.5,5.1-9.7
							c4.1-1.3,8.5,1,9.8,5.1c1.3,4.1-1,8.5-5.1,9.7c-0.8,0.2-1.5,0.4-2.3,0.4C300.1,421.6,297.1,419.5,296,416.1 M190.4,418.2
							L190.4,418.2c-4-1.5-6.1-6-4.5-10c1.5-4,6-6.1,10-4.6c4,1.5,6.1,6,4.6,10c-1.2,3.1-4.1,5.1-7.3,5.1
							C192.2,418.7,191.3,418.5,190.4,418.2 M322.5,406.8c-1.9-3.8-0.4-8.5,3.4-10.4c3.8-1.9,8.5-0.4,10.4,3.4
							c1.9,3.8,0.4,8.5-3.4,10.4c-1.1,0.6-2.3,0.8-3.5,0.8C326.6,411,323.9,409.5,322.5,406.8 M163.9,405.7L163.9,405.7
							c-3.7-2.1-5-6.9-2.9-10.6c2.1-3.7,6.9-5,10.6-2.9c3.7,2.1,5,6.9,2.9,10.6c-1.5,2.5-4.1,3.9-6.8,3.9
							C166.4,406.7,165.1,406.4,163.9,405.7 M347.1,393.1c-2.5-3.4-1.8-8.3,1.6-10.9c3.4-2.6,8.3-1.8,10.9,1.6
							c2.5,3.4,1.8,8.3-1.6,10.9h0c-1.4,1-3,1.5-4.6,1.5C351,396.3,348.6,395.2,347.1,393.1 M139.7,389c-3.3-2.7-3.8-7.6-1.1-10.9
							c2.7-3.3,7.6-3.8,11-1.1c3.3,2.7,3.8,7.6,1.1,10.9c-1.6,1.9-3.8,2.9-6,2.9C142.9,390.8,141.2,390.2,139.7,389 M369.1,375.6
							c-3.1-3-3.2-7.9-0.2-11c3-3.1,7.9-3.2,11-0.2c3.1,3,3.2,7.9,0.2,11c-1.5,1.6-3.6,2.4-5.6,2.4
							C372.5,377.9,370.6,377.1,369.1,375.6 M118.7,368.6c-2.8-3.2-2.5-8.2,0.7-11c3.2-2.8,8.2-2.5,11,0.7c2.8,3.2,2.5,8.1-0.7,11
							c-1.5,1.3-3.3,1.9-5.1,1.9C122.3,371.2,120.2,370.4,118.7,368.6 M387.9,354.8c-3.5-2.5-4.4-7.3-2-10.8c2.4-3.5,7.3-4.4,10.8-2
							c3.5,2.4,4.4,7.3,2,10.8c-1.5,2.2-3.9,3.3-6.4,3.3C390.8,356.1,389.2,355.7,387.9,354.8 M101.2,345L101.2,345
							c-2.3-3.7-1.1-8.5,2.5-10.7c3.7-2.3,8.5-1.1,10.7,2.5c2.3,3.7,1.1,8.5-2.5,10.7c-1.3,0.8-2.7,1.2-4.1,1.2
							C105.2,348.7,102.7,347.4,101.2,345 M403,331.1c-3.9-1.8-5.6-6.5-3.7-10.4c1.8-3.9,6.5-5.5,10.3-3.7c3.9,1.8,5.6,6.5,3.7,10.4
							c-1.3,2.8-4.1,4.5-7,4.5C405.2,331.8,404.1,331.6,403,331.1 M87.9,318.8c-1.6-4,0.3-8.5,4.3-10.1c4-1.6,8.5,0.3,10.1,4.3
							c1.6,4-0.3,8.5-4.3,10.1c-1,0.4-1.9,0.6-2.9,0.6C92.1,323.6,89.2,321.8,87.9,318.8 M414,305.2c-4.1-1.2-6.5-5.5-5.4-9.6
							c1.2-4.1,5.5-6.5,9.6-5.4c4.1,1.2,6.5,5.5,5.4,9.6v0c-1,3.4-4.1,5.7-7.5,5.7C415.4,305.5,414.7,305.5,414,305.2 M79.2,290.9
							C79.2,290.8,79.2,290.8,79.2,290.9c0-0.1,0-0.1,0-0.2c0,0,0,0,0-0.1c0,0,0,0,0-0.1c-0.9-4.2,1.7-8.3,5.9-9.2
							c4.2-1,8.4,1.7,9.3,5.9c0,0,0,0.1,0,0.1c0,0,0,0,0,0c0.9,4.2-1.7,8.4-5.9,9.3c-0.6,0.1-1.2,0.2-1.7,0.2
							C83.2,296.9,80,294.4,79.2,290.9 M420.7,277.9c-4.3-0.5-7.4-4.3-6.9-8.6c0.5-4.3,4.3-7.4,8.6-6.9c4.3,0.5,7.4,4.3,6.9,8.6
							c-0.4,4-3.8,6.9-7.7,6.9C421.2,278,420.9,278,420.7,277.9 M75.1,261.6L75.1,261.6c-0.2-4.3,3-8,7.3-8.2c4.3-0.3,8,3,8.2,7.3
							c0.2,4.3-3,8-7.3,8.2c-0.1,0-0.3,0-0.4,0C78.7,268.9,75.3,265.7,75.1,261.6 M414.5,242.6L414.5,242.6c-0.2-4.3,3-8,7.3-8.2
							c4.3-0.3,8,3,8.2,7.3c0.2,4.3-3,8-7.3,8.2c-0.2,0-0.3,0-0.4,0C418.1,249.9,414.7,246.7,414.5,242.6 M82.7,240.8
							c-4.3-0.5-7.3-4.3-6.9-8.6c0.5-4.3,4.3-7.4,8.6-6.9c4.3,0.5,7.3,4.3,6.9,8.6c-0.4,4-3.8,6.9-7.7,6.9
							C83.3,240.8,83,240.8,82.7,240.8 M410.7,216.1L410.7,216.1c-0.9-4.2,1.7-8.4,5.9-9.3c4.2-0.9,8.4,1.7,9.3,5.9
							c0.9,4.2-1.7,8.3-5.9,9.3c-0.6,0.1-1.1,0.2-1.7,0.2C414.8,222.1,411.6,219.7,410.7,216.1 M86.8,213c-4.1-1.2-6.5-5.5-5.4-9.6
							c1.2-4.1,5.5-6.5,9.6-5.4c4.1,1.2,6.5,5.5,5.4,9.6c-1,3.4-4.1,5.7-7.5,5.7C88.3,213.3,87.5,213.2,86.8,213 M402.8,190.5
							c-1.6-4,0.3-8.5,4.3-10.1c4-1.6,8.5,0.3,10.1,4.3c1.6,4-0.3,8.5-4.3,10.1c-1,0.4-1.9,0.6-2.9,0.6
							C406.9,195.3,404,193.5,402.8,190.5 M95.5,186.3c-3.9-1.8-5.5-6.5-3.7-10.4c1.8-3.9,6.5-5.5,10.4-3.7
							c3.9,1.8,5.5,6.5,3.7,10.3c-1.3,2.8-4.1,4.5-7,4.5C97.7,187,96.5,186.8,95.5,186.3 M390.6,166.6L390.6,166.6
							c-2.3-3.7-1.1-8.5,2.6-10.7c3.7-2.2,8.5-1.1,10.7,2.6c2.2,3.7,1.1,8.5-2.5,10.7c-1.3,0.8-2.7,1.2-4.1,1.2
							C394.7,170.3,392.1,169,390.6,166.6 M108.4,161.3c-3.5-2.4-4.4-7.3-2-10.8c2.4-3.5,7.3-4.4,10.8-2c3.5,2.5,4.4,7.3,2,10.8
							c-1.5,2.2-3.9,3.4-6.4,3.4C111.3,162.7,109.8,162.2,108.4,161.3 M374.8,145c-2.8-3.2-2.5-8.1,0.7-11c3.2-2.8,8.2-2.5,11,0.7
							c2.8,3.2,2.5,8.2-0.7,11c-1.5,1.3-3.3,1.9-5.1,1.9C378.5,147.7,376.3,146.8,374.8,145 M125.2,138.8c-3.1-3-3.2-7.9-0.2-11
							c3-3.1,7.9-3.2,11-0.2c3.1,3,3.2,7.9,0.2,11c-1.5,1.6-3.6,2.4-5.6,2.4C128.7,141,126.7,140.3,125.2,138.8 M355.5,126.4
							L355.5,126.4c-3.3-2.7-3.8-7.6-1.1-10.9c2.7-3.3,7.6-3.8,11-1.1c3.3,2.7,3.8,7.6,1.1,11c-1.5,1.9-3.8,2.8-6,2.8
							C358.7,128.2,357,127.6,355.5,126.4 M145.5,119.4c-2.5-3.5-1.8-8.3,1.7-10.9c3.5-2.5,8.3-1.8,10.9,1.7
							c2.5,3.5,1.8,8.3-1.7,10.9c-1.4,1-3,1.5-4.6,1.5C149.4,122.5,147,121.4,145.5,119.4 M333.5,111.2c-3.7-2.2-5-6.9-2.9-10.6
							c2.1-3.7,6.9-5,10.6-2.8c3.7,2.1,5,6.9,2.9,10.6c-1.5,2.5-4.1,3.9-6.8,3.9C336.1,112.2,334.7,111.9,333.5,111.2 M168.7,103.6
							c-1.9-3.8-0.4-8.5,3.4-10.4c3.8-2,8.5-0.4,10.5,3.4c1.9,3.8,0.4,8.5-3.4,10.4c-1.1,0.6-2.3,0.8-3.5,0.8
							C172.8,107.8,170.1,106.3,168.7,103.6 M309.3,99.7L309.3,99.7c-4-1.5-6.1-6-4.6-10c1.5-4,6-6.1,10-4.5c4,1.5,6.1,6,4.5,10
							c-1.2,3.1-4.1,5.1-7.3,5.1C311.1,100.2,310.2,100.1,309.3,99.7 M194.3,91.8c-1.3-4.1,1-8.5,5.1-9.7c4.1-1.3,8.5,1,9.7,5.1
							c1.3,4.1-1,8.5-5.1,9.7c-0.8,0.2-1.5,0.4-2.3,0.4C198.4,97.3,195.3,95.1,194.3,91.8 M283.5,92.4c-4.2-0.8-7-4.9-6.1-9.1
							c0.8-4.2,4.9-7,9.1-6.1c4.2,0.8,7,4.9,6.1,9.1c-0.7,3.7-4,6.3-7.6,6.3C284.5,92.6,284,92.5,283.5,92.4 M221.4,84.4
							c-0.6-4.2,2.4-8.2,6.6-8.8c4.3-0.6,8.2,2.4,8.8,6.6c0.6,4.2-2.4,8.2-6.6,8.8c-0.4,0.1-0.7,0.1-1.1,0.1
							C225.2,91.1,221.9,88.3,221.4,84.4 M256.9,89.5c-4.3-0.1-7.7-3.7-7.6-8c0.1-4.3,3.7-7.7,8-7.6c4.3,0.1,7.7,3.7,7.6,8
							c-0.1,4.2-3.6,7.6-7.8,7.6H256.9z"/>
					</g>
				</g>
			</g>
			<g class="st13">
				<g>
					<defs>
						<rect id="SVGID_19_" x="98.4" y="97.4" width="308.4" height="308.5"/>
					</defs>
					<clipPath id="SVGID_20_">
						<use xlink:href="#SVGID_19_"  style="overflow:visible;"/>
					</clipPath>
					<g class="st14">
						<defs>
							<rect id="SVGID_21_" x="98.4" y="97.4" width="308.4" height="308.5"/>
						</defs>
						<clipPath id="SVGID_22_">
							<use xlink:href="#SVGID_21_"  style="overflow:visible;"/>
						</clipPath>
						<path class="st15" d="M250.1,398.2c-0.2-4.4,3.3-8.1,7.7-8.3c4.4-0.2,8.1,3.3,8.3,7.7c0.2,4.4-3.3,8.1-7.7,8.3
							c-0.1,0-0.2,0-0.3,0C253.8,405.9,250.3,402.5,250.1,398.2 M232.9,404.8c-4.4-0.6-7.4-4.6-6.9-8.9c0.6-4.4,4.6-7.4,8.9-6.9v0
							c4.4,0.6,7.5,4.5,6.9,8.9c-0.5,4-3.9,7-7.9,7C233.6,404.8,233.3,404.8,232.9,404.8 M274.3,396.6c-0.9-4.3,1.9-8.5,6.2-9.4v0
							c4.3-0.9,8.5,1.9,9.4,6.2c0.9,4.3-1.9,8.5-6.2,9.4c-0.5,0.1-1.1,0.2-1.6,0.2C278.4,403,275,400.4,274.3,396.6 M208,399.4
							c-4.2-1.3-6.6-5.7-5.3-9.9c1.3-4.2,5.7-6.6,9.9-5.3c4.2,1.3,6.6,5.7,5.3,9.9c-1,3.4-4.2,5.7-7.6,5.7
							C209.5,399.8,208.8,399.7,208,399.4 M297.8,391c-1.6-4.1,0.5-8.7,4.6-10.3c4.1-1.6,8.7,0.5,10.3,4.6c1.6,4.1-0.5,8.7-4.6,10.3
							c-0.9,0.4-1.9,0.5-2.9,0.5C302.1,396.2,299,394.2,297.8,391 M184.3,390.1c-4-2-5.6-6.7-3.6-10.7c1.9-3.9,6.7-5.6,10.7-3.6
							c3.9,1.9,5.6,6.7,3.6,10.7c-1.4,2.8-4.2,4.4-7.2,4.4C186.6,390.9,185.4,390.6,184.3,390.1 M320.1,381.7
							c-2.2-3.8-1-8.7,2.8-10.9c3.8-2.2,8.7-1,10.9,2.8c2.2,3.8,1,8.7-2.8,10.9c-1.3,0.7-2.7,1.1-4,1.1
							C324.3,385.6,321.6,384.2,320.1,381.7 M162.5,377L162.5,377c-3.6-2.6-4.4-7.6-1.8-11.1s7.5-4.4,11.1-1.8
							c3.6,2.6,4.4,7.5,1.8,11.1c-1.6,2.2-4,3.3-6.5,3.3C165.5,378.4,163.9,378,162.5,377 M340.6,368.8c-2.8-3.4-2.4-8.4,1-11.2
							c3.4-2.8,8.4-2.4,11.2,1c2.8,3.4,2.4,8.4-1,11.2c-1.5,1.3-3.3,1.9-5.1,1.9C344.5,371.7,342.2,370.7,340.6,368.8 M143.1,360.4
							c-3.1-3.1-3.1-8.2,0-11.3c3.1-3.1,8.2-3.1,11.3,0c3.1,3.1,3.1,8.2,0,11.3c-1.6,1.6-3.6,2.3-5.6,2.3S144.6,362,143.1,360.4
							 M358.7,352.7c-3.4-2.9-3.8-7.9-0.9-11.2c2.9-3.3,7.9-3.7,11.2-0.9c3.3,2.9,3.7,7.9,0.9,11.2c-1.6,1.8-3.8,2.8-6.1,2.8
							C362,354.6,360.2,354,358.7,352.7 M126.6,340.9c-2.5-3.6-1.7-8.6,1.9-11.1c3.6-2.5,8.6-1.7,11.1,1.9c2.6,3.6,1.7,8.6-1.9,11.1
							c-1.4,1-3,1.5-4.6,1.5C130.6,344.3,128.2,343.1,126.6,340.9 M373.8,333.9c-3.8-2.3-5-7.2-2.7-10.9c2.3-3.8,7.2-5,10.9-2.7
							c3.8,2.3,5,7.2,2.7,10.9c-1.5,2.5-4.1,3.9-6.8,3.9C376.6,335,375.1,334.6,373.8,333.9 M113.7,319c-1.9-4-0.3-8.7,3.7-10.6
							c4-1.9,8.7-0.3,10.6,3.7c1.9,4,0.3,8.7-3.7,10.7c-1.1,0.5-2.3,0.8-3.5,0.8C117.9,323.5,115,321.9,113.7,319 M385.7,312.8
							c-4.1-1.6-6.1-6.3-4.5-10.3c1.6-4.1,6.2-6.1,10.3-4.5c4.1,1.6,6.1,6.2,4.5,10.3c-1.2,3.1-4.2,5-7.4,5
							C387.7,313.3,386.7,313.2,385.7,312.8 M104.5,295.2c0,0,0-0.1,0-0.2c-1.2-4.2,1.2-8.7,5.4-9.9c4.2-1.2,8.6,1.2,9.9,5.4
							c0,0,0,0,0,0.1c0,0,0,0,0,0.1c1.2,4.2-1.2,8.7-5.4,9.9c-0.7,0.2-1.5,0.3-2.2,0.3C108.7,301,105.5,298.7,104.5,295.2 M394,290
							c-4.3-0.9-7.1-5.2-6.1-9.5c0.9-4.3,5.1-7,9.5-6.1c4.3,0.9,7.1,5.2,6.1,9.5c-0.8,3.8-4.1,6.3-7.8,6.3
							C395.1,290.2,394.5,290.1,394,290 M99.3,270.1L99.3,270.1c-0.5-4.4,2.6-8.4,6.9-8.9c4.4-0.5,8.3,2.6,8.9,7
							c0.5,4.4-2.6,8.3-6.9,8.9c-0.3,0-0.7,0.1-1,0.1C103.3,277.1,99.8,274.2,99.3,270.1 M398.4,266.2c-4.4-0.2-7.8-3.9-7.6-8.3
							c0.2-4.4,3.9-7.8,8.3-7.6c4.4,0.2,7.8,3.9,7.6,8.3c-0.2,4.3-3.7,7.6-8,7.6H398.4z M106,253c-4.4-0.2-7.8-3.9-7.6-8.3
							c0.2-4.4,3.9-7.8,8.3-7.6c4.4,0.2,7.8,3.9,7.6,8.3c-0.2,4.3-3.7,7.6-7.9,7.6H106z M389.9,235.1L389.9,235.1
							c-0.5-4.4,2.6-8.3,7-8.9c4.4-0.5,8.3,2.6,8.9,6.9c0.5,4.4-2.6,8.3-6.9,8.9c-0.3,0-0.7,0.1-1,0.1
							C393.8,242.1,390.4,239.1,389.9,235.1 M107.8,228.8c-4.3-0.9-7.1-5.2-6.1-9.5c0.9-4.3,5.2-7.1,9.5-6.1c4.3,0.9,7,5.2,6.1,9.5
							c-0.8,3.7-4.1,6.3-7.8,6.3C108.9,229,108.3,228.9,107.8,228.8 M385.3,212.7c-1.2-4.2,1.2-8.7,5.4-9.9c4.2-1.2,8.7,1.2,9.9,5.4
							c1.2,4.2-1.2,8.7-5.4,9.9c-0.8,0.2-1.5,0.3-2.3,0.3C389.5,218.4,386.3,216.2,385.3,212.7 M113.5,205.3
							c-4.1-1.6-6.1-6.3-4.5-10.4c1.6-4.1,6.3-6.1,10.3-4.5c4.1,1.6,6.1,6.2,4.5,10.3c-1.2,3.1-4.2,5-7.4,5
							C115.5,205.9,114.5,205.7,113.5,205.3 M377.1,191.3c-1.9-4-0.3-8.7,3.7-10.6c4-1.9,8.7-0.3,10.6,3.7c1.9,4,0.3,8.7-3.7,10.6
							c-1.1,0.5-2.3,0.8-3.5,0.8C381.3,195.9,378.4,194.2,377.1,191.3 M123,183.1c-3.8-2.3-5-7.2-2.7-10.9c2.3-3.8,7.2-5,10.9-2.7
							c3.8,2.3,5,7.2,2.7,10.9c-1.5,2.5-4.1,3.9-6.8,3.9C125.7,184.2,124.3,183.8,123,183.1 M365.5,171.7c-2.5-3.6-1.7-8.6,1.9-11.1
							c3.6-2.5,8.6-1.7,11.1,1.9c2.6,3.6,1.7,8.6-1.9,11.1c-1.4,1-3,1.5-4.6,1.5C369.5,175,367,173.9,365.5,171.7 M136.1,162.7
							c-3.4-2.9-3.7-7.9-0.9-11.2c2.9-3.4,7.9-3.8,11.2-0.9c3.4,2.9,3.8,7.9,0.9,11.2c-1.6,1.9-3.8,2.8-6.1,2.8
							C139.4,164.6,137.6,164,136.1,162.7 M350.8,154.2c-3.1-3.1-3.1-8.2,0-11.3c3.1-3.1,8.2-3.1,11.3,0c3.1,3.1,3.1,8.2,0,11.3
							c-1.6,1.6-3.6,2.3-5.6,2.3S352.3,155.8,350.8,154.2 M152.3,144.7c-2.8-3.4-2.4-8.4,1-11.2c3.4-2.8,8.4-2.4,11.2,1
							c2.8,3.4,2.4,8.4-1,11.2c-1.5,1.3-3.3,1.9-5.1,1.9C156.1,147.6,153.9,146.6,152.3,144.7 M333.4,139.4
							c-3.6-2.6-4.4-7.5-1.8-11.1c2.6-3.6,7.6-4.4,11.1-1.8c3.6,2.6,4.4,7.5,1.8,11.1c-1.6,2.2-4,3.3-6.5,3.3
							C336.4,140.9,334.8,140.4,333.4,139.4 M171.3,129.7c-2.2-3.8-1-8.7,2.8-10.9c3.8-2.2,8.7-1,10.9,2.8c2.2,3.8,1,8.7-2.8,10.9
							c-1.3,0.7-2.7,1.1-4.1,1.1C175.4,133.6,172.7,132.2,171.3,129.7 M313.8,127.6c-3.9-1.9-5.6-6.7-3.6-10.7
							c1.9-4,6.7-5.6,10.7-3.6c3.9,1.9,5.6,6.7,3.6,10.7c-1.4,2.8-4.2,4.4-7.2,4.4C316.1,128.4,314.9,128.2,313.8,127.6 M192.4,118
							c-1.6-4.1,0.5-8.7,4.6-10.3c4.1-1.6,8.7,0.5,10.3,4.6c1.6,4.1-0.5,8.7-4.6,10.3c-0.9,0.4-1.9,0.5-2.9,0.5
							C196.7,123.1,193.7,121.2,192.4,118 M292.5,119.2c-4.2-1.3-6.6-5.7-5.3-9.9c1.3-4.2,5.7-6.6,10-5.3c4.2,1.3,6.6,5.7,5.3,9.9
							c-1,3.4-4.2,5.7-7.6,5.7C294.1,119.6,293.3,119.4,292.5,119.2 M215.3,110c-0.9-4.3,1.9-8.5,6.2-9.4c4.3-0.9,8.5,1.9,9.4,6.2
							c0.9,4.3-1.9,8.5-6.2,9.4c-0.5,0.1-1.1,0.2-1.6,0.2C219.4,116.3,216.1,113.7,215.3,110 M270.2,114.4c-4.4-0.6-7.5-4.6-6.9-8.9
							c0.6-4.4,4.6-7.5,8.9-6.9c4.4,0.6,7.4,4.6,6.9,8.9c-0.5,4-4,7-7.9,7C270.9,114.5,270.5,114.5,270.2,114.4 M239.1,105.7
							c-0.2-4.4,3.3-8.1,7.7-8.3c4.4-0.2,8.1,3.3,8.3,7.7c0.2,4.4-3.3,8.1-7.7,8.3h-0.3C242.8,113.4,239.3,110,239.1,105.7"/>
					</g>
				</g>
			</g>
			<path class="st16" d="M245,381.5L245,381.5c-4.4-0.3-7.8-4-7.5-8.4c0.3-4.4,4-7.8,8.4-7.5c4.4,0.3,7.7,4,7.5,8.4
				c-0.3,4.2-3.8,7.5-7.9,7.5C245.3,381.5,245.1,381.5,245,381.5 M257.7,373.9c-0.5-4.4,2.7-8.3,7.1-8.8c4.4-0.5,8.3,2.7,8.8,7.1
				c0.5,4.4-2.7,8.3-7.1,8.8c-0.3,0-0.6,0-0.9,0C261.6,381,258.1,378,257.7,373.9 M223.7,378.5c-4.3-1-7-5.2-6-9.5
				c1-4.3,5.2-7,9.6-6c4.3,1,7,5.2,6,9.5c-0.8,3.7-4.1,6.2-7.8,6.2C224.9,378.7,224.3,378.6,223.7,378.5 M277.7,371.4
				c-1.2-4.2,1.3-8.6,5.5-9.8c4.2-1.2,8.6,1.3,9.8,5.5c1.2,4.2-1.3,8.6-5.5,9.8c-0.7,0.2-1.4,0.3-2.2,0.3
				C281.9,377.2,278.7,374.9,277.7,371.4 M203.2,372c-4.1-1.7-6-6.3-4.4-10.4c1.7-4.1,6.3-6,10.4-4.4c4.1,1.7,6,6.3,4.3,10.4
				c-1.3,3.1-4.2,4.9-7.4,4.9C205.3,372.6,204.2,372.4,203.2,372 M297,365.6c-1.9-4-0.1-8.7,3.9-10.6c4-1.9,8.7-0.1,10.6,3.9
				c1.8,4,0.1,8.7-3.9,10.6c-1.1,0.5-2.2,0.7-3.4,0.7C301.3,370.2,298.4,368.5,297,365.6 M184.1,362.2c-3.7-2.3-4.9-7.2-2.6-11
				c2.3-3.8,7.2-4.9,11-2.6c3.7,2.3,4.9,7.2,2.6,11c-1.5,2.4-4.1,3.8-6.8,3.8C186.9,363.4,185.4,363,184.1,362.2 M315.2,356.7
				c-2.5-3.6-1.6-8.6,2.1-11.1h0c3.6-2.5,8.6-1.6,11.1,2.1c2.5,3.6,1.6,8.6-2,11.1c-1.4,0.9-3,1.4-4.5,1.4
				C319.2,360.2,316.7,359,315.2,356.7 M166.9,349.5L166.9,349.5c-3.3-2.9-3.7-7.9-0.7-11.2c2.9-3.3,7.9-3.7,11.2-0.8v0
				c3.3,2.9,3.7,7.9,0.8,11.2c-1.6,1.8-3.8,2.7-6,2.7C170.3,351.5,168.4,350.8,166.9,349.5 M331.6,345c-3.1-3.2-3-8.2,0.2-11.3
				c3.2-3.1,8.2-3,11.3,0.2c3,3.2,3,8.2-0.2,11.3c-1.6,1.5-3.6,2.3-5.6,2.3C335.3,347.4,333.2,346.6,331.6,345 M151.9,334.1
				L151.9,334.1c-2.8-3.4-2.3-8.4,1.1-11.2c3.4-2.8,8.4-2.3,11.2,1.1c2.8,3.4,2.3,8.4-1.1,11.2c-1.5,1.2-3.3,1.8-5.1,1.8
				C155.8,337,153.5,336,151.9,334.1 M345.9,330.7c-3.5-2.6-4.3-7.6-1.7-11.2c2.6-3.6,7.6-4.3,11.2-1.7c3.5,2.6,4.3,7.6,1.7,11.1
				c-1.6,2.1-4,3.2-6.4,3.2C349,332.2,347.3,331.8,345.9,330.7 M139.8,316.4c-2.2-3.8-0.9-8.7,3-10.9c3.8-2.2,8.7-0.9,10.9,3
				c2.2,3.8,0.9,8.7-3,10.9c-1.2,0.7-2.6,1.1-4,1.1C143.9,320.4,141.2,319,139.8,316.4 M357.6,314.2c-3.9-2-5.5-6.8-3.5-10.7
				c2-3.9,6.8-5.5,10.7-3.5c3.9,2,5.5,6.8,3.5,10.7c-1.4,2.8-4.2,4.4-7.1,4.4C360,315.1,358.8,314.8,357.6,314.2 M130.7,296.9
				c0,0,0-0.1-0.1-0.2c0,0,0,0,0-0.1v0c-1.5-4.1,0.6-8.7,4.7-10.2c4.1-1.5,8.7,0.6,10.2,4.7c0,0,0,0.1,0,0.1c0,0,0,0.1,0,0.1
				c1.5,4.1-0.6,8.7-4.7,10.3c-0.9,0.3-1.8,0.5-2.8,0.5C134.9,302.1,131.9,300.2,130.7,296.9 M366.5,296.1c-4.2-1.3-6.5-5.8-5.2-10
				c1.3-4.2,5.8-6.5,10-5.2c4.2,1.3,6.5,5.8,5.2,10c-1.1,3.4-4.2,5.6-7.6,5.6C368.1,296.5,367.3,296.4,366.5,296.1 M124.8,276
				c-0.8-4.3,2-8.5,6.3-9.3c4.3-0.8,8.5,2,9.3,6.3c0.8,4.3-2,8.5-6.3,9.3c-0.5,0.1-1,0.1-1.5,0.1C128.9,282.5,125.5,279.8,124.8,276
				 M372.2,276.7c-4.4-0.6-7.4-4.7-6.8-9c0.6-4.4,4.7-7.4,9-6.8c4.4,0.6,7.4,4.7,6.8,9c-0.6,4-4,6.9-7.9,6.9
				C373,276.8,372.6,276.8,372.2,276.7 M122.5,254.7c-0.1-4.4,3.4-8.1,7.8-8.2c4.4-0.1,8,3.4,8.2,7.8c0.1,4.4-3.4,8.1-7.8,8.1h-0.2
				C126.2,262.4,122.6,259,122.5,254.7 M366.6,248.9L366.6,248.9c-0.1-4.4,3.4-8.1,7.8-8.2c4.4-0.1,8.1,3.4,8.2,7.8
				c0.1,4.4-3.4,8.1-7.8,8.2h-0.2C370.2,256.7,366.7,253.3,366.6,248.9 M130.6,242.2c-4.4-0.6-7.4-4.7-6.8-9c0.6-4.4,4.7-7.4,9-6.7
				c4.4,0.6,7.4,4.7,6.7,9c-0.6,4-4,6.8-7.9,6.8C131.3,242.3,131,242.3,130.6,242.2 M364.6,230.2L364.6,230.2
				c-0.8-4.3,2-8.5,6.3-9.3c4.3-0.8,8.5,2,9.3,6.3c0.8,4.3-2,8.5-6.3,9.3c-0.5,0.1-1,0.1-1.5,0.1C368.6,236.7,365.3,234,364.6,230.2
				 M133.8,222.3c-4.2-1.3-6.5-5.8-5.2-10c1.3-4.2,5.8-6.5,10-5.2c4.2,1.3,6.5,5.8,5.2,10c-1.1,3.4-4.2,5.6-7.6,5.6
				C135.4,222.7,134.6,222.6,133.8,222.3 M359.5,212.1c-1.5-4.1,0.6-8.7,4.7-10.3c4.1-1.5,8.7,0.6,10.3,4.7
				c1.5,4.1-0.6,8.7-4.7,10.2c-0.9,0.3-1.9,0.5-2.8,0.5C363.7,217.3,360.7,215.3,359.5,212.1 M140.3,203.2c-3.9-2-5.5-6.8-3.5-10.7
				c2-3.9,6.8-5.5,10.7-3.5c3.9,2,5.5,6.8,3.5,10.7c-1.4,2.8-4.2,4.4-7.1,4.4C142.7,204.1,141.4,203.8,140.3,203.2 M351.5,195
				L351.5,195c-2.2-3.8-0.8-8.7,3-10.9c3.8-2.2,8.7-0.8,10.9,3c2.2,3.8,0.8,8.7-3,10.9c-1.2,0.7-2.6,1.1-3.9,1.1
				C355.7,199,353,197.6,351.5,195 M149.8,185.4c-3.5-2.6-4.3-7.6-1.7-11.2c2.6-3.5,7.6-4.3,11.2-1.7c3.5,2.6,4.3,7.6,1.7,11.2
				c-1.6,2.1-4,3.2-6.4,3.2C152.9,186.9,151.2,186.4,149.8,185.4 M340.9,179.5c-2.8-3.4-2.3-8.4,1.1-11.2c3.4-2.8,8.4-2.3,11.2,1.1
				c2.8,3.4,2.3,8.4-1.1,11.2c-1.5,1.2-3.3,1.8-5,1.8C344.7,182.4,342.5,181.4,340.9,179.5 M162.1,169.4c-3.1-3.2-3-8.2,0.2-11.3
				c3.2-3.1,8.2-3,11.3,0.2c3.1,3.2,3,8.2-0.2,11.3c-1.5,1.5-3.5,2.2-5.5,2.2C165.7,171.8,163.6,171,162.1,169.4 M327.8,165.9
				L327.8,165.9c-3.3-2.9-3.7-7.9-0.7-11.3c2.9-3.3,7.9-3.6,11.2-0.7c3.3,2.9,3.7,7.9,0.7,11.2c-1.6,1.8-3.8,2.7-6,2.7
				C331.2,167.9,329.3,167.3,327.8,165.9 M176.8,155.6c-2.5-3.6-1.6-8.6,2.1-11.1c3.6-2.5,8.6-1.6,11.1,2.1
				c2.5,3.6,1.6,8.6-2.1,11.1c-1.4,0.9-3,1.4-4.5,1.4C180.9,159.1,178.4,157.8,176.8,155.6 M312.6,154.7c-3.7-2.3-4.9-7.2-2.6-11
				c2.3-3.7,7.2-4.9,11-2.6c3.7,2.3,4.9,7.2,2.6,11c-1.5,2.4-4.1,3.8-6.8,3.8C315.4,155.9,314,155.5,312.6,154.7 M193.7,144.5
				c-1.9-4-0.1-8.7,3.9-10.6c4-1.9,8.7-0.1,10.6,3.9c1.9,4,0.1,8.7-3.9,10.6c-1.1,0.5-2.2,0.8-3.4,0.8
				C197.9,149.1,195,147.4,193.7,144.5 M295.9,146.2c-4.1-1.7-6-6.3-4.3-10.4c1.7-4.1,6.3-6,10.4-4.3c4.1,1.7,6,6.3,4.4,10.4
				c-1.3,3.1-4.2,4.9-7.4,4.9C297.9,146.8,296.9,146.6,295.9,146.2 M212.1,136.2c-1.2-4.2,1.3-8.6,5.5-9.8c4.2-1.2,8.6,1.3,9.8,5.5
				c1.2,4.2-1.3,8.6-5.5,9.8c-0.7,0.2-1.4,0.3-2.1,0.3C216.3,142.1,213.1,139.8,212.1,136.2 M277.9,140.5c-4.3-1-7-5.2-6-9.5
				c1-4.3,5.3-7,9.6-6c4.3,1,7,5.3,6,9.6c-0.9,3.7-4.1,6.2-7.8,6.2C279.1,140.7,278.5,140.6,277.9,140.5 M231.7,131.2
				c-0.5-4.4,2.7-8.3,7.1-8.8c4.4-0.5,8.3,2.7,8.8,7.1c0.5,4.4-2.7,8.3-7.1,8.8c-0.3,0-0.6,0-0.9,0
				C235.6,138.3,232.1,135.2,231.7,131.2 M259.3,137.8L259.3,137.8c-4.4-0.3-7.8-4-7.5-8.4c0.3-4.4,4-7.8,8.4-7.5h0
				c4.4,0.3,7.8,4,7.5,8.4c-0.2,4.2-3.8,7.5-7.9,7.5C259.6,137.8,259.4,137.8,259.3,137.8"/>
			<path class="st16" d="M247.2,350.6c-0.1-4.4,3.4-8.1,7.8-8.2c4.4-0.1,8.1,3.4,8.2,7.8c0.1,4.4-3.4,8.1-7.8,8.2h-0.2
				C250.9,358.4,247.3,354.9,247.2,350.6 M231.6,356.3c-4.3-0.9-7.1-5.1-6.3-9.4c0.9-4.3,5.1-7.1,9.4-6.2c4.3,0.9,7.1,5.1,6.3,9.4
				c-0.8,3.8-4.1,6.4-7.8,6.4C232.6,356.5,232.1,356.4,231.6,356.3 M269.3,349.3c-1.1-4.3,1.5-8.6,5.7-9.7c4.3-1.1,8.6,1.5,9.7,5.7
				c1.1,4.3-1.5,8.6-5.7,9.7c-0.7,0.2-1.3,0.3-2,0.3C273.5,355.3,270.3,352.9,269.3,349.3 M208.8,349L208.8,349
				c-4-1.8-5.8-6.5-4-10.5c1.8-4,6.5-5.8,10.5-4c4,1.8,5.8,6.5,4,10.5c-1.3,3-4.2,4.7-7.3,4.7C211,349.7,209.9,349.5,208.8,349
				 M290.6,343.1c-2-3.9-0.5-8.7,3.4-10.7s8.7-0.5,10.7,3.4c2,3.9,0.5,8.7-3.4,10.7h0c-1.2,0.6-2.4,0.9-3.6,0.9
				C294.9,347.4,292.1,345.9,290.6,343.1 M188.3,336.9c-3.5-2.6-4.2-7.6-1.6-11.2c2.7-3.5,7.7-4.2,11.2-1.6
				c3.5,2.6,4.2,7.6,1.6,11.2c-1.6,2.1-4,3.2-6.4,3.2C191.4,338.5,189.7,338,188.3,336.9 M310,332.4c-2.8-3.4-2.4-8.4,1-11.2
				c3.4-2.8,8.4-2.4,11.2,1c2.8,3.4,2.4,8.4-1,11.2c-1.5,1.3-3.3,1.9-5.1,1.9C313.9,335.2,311.6,334.2,310,332.4 M170.9,320.5
				c-2.8-3.4-2.4-8.4,1-11.2c3.4-2.8,8.4-2.4,11.2,1c2.8,3.4,2.4,8.4-1,11.2c-1.5,1.3-3.3,1.9-5.1,1.9
				C174.7,323.3,172.5,322.3,170.9,320.5 M326.5,317.6c-3.5-2.7-4.2-7.7-1.6-11.2c2.7-3.5,7.7-4.2,11.2-1.6
				c3.5,2.6,4.2,7.6,1.6,11.2c-1.6,2.1-4,3.2-6.4,3.2C329.7,319.2,328,318.6,326.5,317.6 M157.7,300.6c0,0,0-0.1-0.1-0.2
				c0,0,0,0,0-0.1c-2-3.9-0.4-8.7,3.5-10.7c3.9-2,8.7-0.5,10.7,3.5c0,0,0,0.1,0.1,0.1c0,0,0,0,0,0.1c2,3.9,0.5,8.7-3.4,10.7
				c-1.2,0.6-2.4,0.9-3.7,0.9C161.9,304.9,159.1,303.3,157.7,300.6 M339.3,299.4c-4-1.8-5.8-6.5-4-10.5c1.8-4,6.5-5.8,10.5-4
				c4,1.8,5.8,6.5,4,10.5v0c-1.3,3-4.2,4.7-7.3,4.7C341.5,300.1,340.4,299.9,339.3,299.4 M149.1,278L149.1,278
				c-1.1-4.3,1.5-8.6,5.7-9.7c4.3-1.1,8.6,1.5,9.7,5.8c1.1,4.3-1.5,8.6-5.7,9.7c-0.7,0.2-1.3,0.3-2,0.3
				C153.3,284,150,281.6,149.1,278 M347.8,278.9c-4.3-0.9-7.1-5.1-6.2-9.4c0.9-4.3,5.1-7.1,9.4-6.2c4.3,0.9,7.1,5.1,6.2,9.4
				c-0.8,3.8-4.1,6.4-7.8,6.4C348.8,279.1,348.3,279,347.8,278.9 M145.8,254.3L145.8,254.3c-0.1-4.4,3.4-8.1,7.8-8.2
				c4.4-0.1,8,3.4,8.1,7.8c0.1,4.4-3.4,8.1-7.8,8.2h-0.2C149.5,262.1,145.9,258.6,145.8,254.3 M343.3,249.3
				c-0.1-4.4,3.4-8.1,7.8-8.2c4.4-0.1,8.1,3.4,8.2,7.8c0.1,4.4-3.4,8.1-7.8,8.2h-0.2C347,257.1,343.4,253.6,343.3,249.3
				 M154.2,239.9c-4.3-0.9-7.1-5.1-6.2-9.4c0.9-4.3,5.1-7.1,9.4-6.2c4.3,0.9,7.1,5.1,6.2,9.4v0c-0.8,3.8-4.1,6.4-7.8,6.4
				C155.2,240.1,154.7,240,154.2,239.9 M340.5,229.2c-1.1-4.3,1.5-8.6,5.7-9.7c4.3-1.1,8.6,1.5,9.7,5.7c1.1,4.3-1.5,8.6-5.7,9.7
				c-0.7,0.2-1.3,0.2-2,0.2C344.7,235.2,341.4,232.8,340.5,229.2 M159.2,218.3c-4-1.8-5.8-6.5-4-10.5c1.8-4,6.5-5.8,10.5-4
				c4,1.8,5.8,6.5,4,10.5c-1.3,3-4.2,4.7-7.3,4.7C161.4,219,160.3,218.8,159.2,218.3 M333.3,210.2c-2-3.9-0.5-8.7,3.4-10.7
				c3.9-2,8.7-0.5,10.7,3.5c2,3.9,0.5,8.7-3.4,10.7c-1.2,0.6-2.4,0.9-3.6,0.9C337.5,214.5,334.7,212.9,333.3,210.2 M169,198.4
				c-3.5-2.7-4.2-7.6-1.5-11.2c2.6-3.5,7.6-4.2,11.2-1.6c3.5,2.7,4.2,7.7,1.6,11.2c-1.6,2.1-4,3.2-6.4,3.2
				C172.1,200,170.4,199.5,169,198.4 M322,193.2c-2.8-3.4-2.4-8.4,1-11.2c3.4-2.8,8.4-2.4,11.2,1c2.8,3.4,2.4,8.4-1,11.2
				c-1.5,1.3-3.3,1.9-5.1,1.9C325.9,196.1,323.6,195.1,322,193.2 M182.9,181.2c-2.8-3.4-2.4-8.4,1-11.2c3.4-2.8,8.4-2.4,11.2,1
				c2.8,3.4,2.4,8.4-1,11.2c-1.5,1.2-3.3,1.8-5.1,1.8C186.8,184,184.5,183,182.9,181.2 M307.3,179.3c-3.5-2.6-4.2-7.7-1.6-11.2
				c2.6-3.5,7.7-4.2,11.2-1.6c3.5,2.7,4.2,7.7,1.6,11.2c-1.6,2.1-4,3.2-6.4,3.2C310.4,180.9,308.7,180.3,307.3,179.3 M200.4,167.5
				c-2-3.9-0.5-8.7,3.5-10.7c3.9-2,8.7-0.5,10.7,3.4c2,3.9,0.5,8.7-3.4,10.7c-1.2,0.6-2.4,0.9-3.6,0.9
				C204.6,171.8,201.8,170.2,200.4,167.5 M289.8,168.9L289.8,168.9c-4-1.8-5.8-6.5-4-10.5c1.8-4,6.5-5.8,10.5-4h0
				c4,1.8,5.8,6.5,4,10.5c-1.3,3-4.2,4.7-7.3,4.7C292,169.6,290.9,169.4,289.8,168.9 M220.4,158c-1.1-4.3,1.5-8.6,5.7-9.7
				c4.3-1.1,8.6,1.5,9.7,5.7c1.1,4.3-1.5,8.6-5.8,9.7c-0.7,0.2-1.3,0.3-2,0.3C224.6,163.9,221.3,161.6,220.4,158 M270.5,162.7
				c-4.3-0.9-7.1-5.1-6.2-9.4c0.9-4.3,5.1-7.1,9.4-6.2c4.3,0.9,7.1,5.1,6.2,9.4c-0.8,3.8-4.1,6.4-7.8,6.4
				C271.5,162.8,271,162.8,270.5,162.7 M242.1,153.1c-0.1-4.4,3.4-8.1,7.8-8.2c4.4-0.1,8.1,3.4,8.2,7.8c0.1,4.4-3.4,8.1-7.8,8.2
				c-0.1,0-0.1,0-0.2,0C245.7,160.9,242.2,157.5,242.1,153.1"/>
			<path class="st16" d="M248.4,326.1c-0.2-4.4,3.2-8.1,7.5-8.4c4.4-0.2,8.2,3.2,8.4,7.5c0.2,4.4-3.2,8.2-7.5,8.4
				c-0.1,0-0.3,0-0.4,0C252.2,333.7,248.6,330.4,248.4,326.1 M232.5,331.3c-4.3-1.1-6.9-5.4-5.8-9.7c1.1-4.3,5.4-6.9,9.7-5.8
				c4.3,1.1,6.9,5.4,5.8,9.7c-0.9,3.6-4.1,6-7.7,6C233.8,331.5,233.1,331.4,232.5,331.3 M270.6,324c-1.5-4.1,0.6-8.7,4.7-10.2
				c4.1-1.5,8.7,0.6,10.2,4.8c1.5,4.1-0.6,8.7-4.7,10.2c-0.9,0.3-1.8,0.5-2.7,0.5C274.8,329.3,271.8,327.3,270.6,324 M209.9,321.9
				c-3.8-2.3-5-7.2-2.7-11c2.3-3.8,7.2-5,10.9-2.7c3.8,2.3,5,7.2,2.7,11c-1.5,2.5-4.1,3.8-6.8,3.8
				C212.6,323,211.2,322.6,209.9,321.9 M291.1,315.5c-2.7-3.5-2-8.5,1.5-11.2c3.5-2.7,8.5-2,11.2,1.5c2.7,3.5,2,8.5-1.5,11.2
				c-1.5,1.1-3.1,1.6-4.8,1.6C295,318.6,292.7,317.6,291.1,315.5 M192.3,307.2c-0.4-0.3-0.8-0.7-1.2-1.1c-2.9-3.3-2.6-8.3,0.7-11.3
				c3.2-2.9,8.1-2.6,11,0.4c0.1,0.1,0.2,0.2,0.2,0.3c2.9,3.3,2.6,8.3-0.7,11.2c-1.5,1.4-3.4,2-5.3,2
				C195.4,308.8,193.7,308.3,192.3,307.2 M308.2,301.3c-3.6-2.6-4.4-7.5-1.8-11.1v0c2.5-3.6,7.5-4.4,11.1-1.9
				c3.6,2.6,4.4,7.6,1.8,11.1c-1.5,2.2-4,3.3-6.5,3.3C311.2,302.8,309.6,302.3,308.2,301.3 M177.7,285.6c-1.8-4-0.1-8.7,4-10.6
				c4-1.8,8.7,0,10.6,4c1.8,4,0,8.7-4,10.6c-1.1,0.5-2.2,0.7-3.3,0.7C182,290.3,179.1,288.5,177.7,285.6 M320.4,282.7
				c-4.2-1.4-6.4-5.9-5-10.1c1.4-4.2,5.9-6.4,10.1-5c4.2,1.4,6.4,5.9,5,10.1c-1.1,3.3-4.2,5.5-7.6,5.5
				C322,283.1,321.2,283,320.4,282.7 M171.1,262.1c-0.6-4.4,2.5-8.4,6.9-8.9c4.4-0.6,8.4,2.5,8.9,6.9c0.6,4.4-2.5,8.4-6.9,8.9
				c-0.3,0-0.7,0.1-1,0.1C175,269,171.6,266.1,171.1,262.1 M326.5,261.3c-4.4-0.1-7.9-3.8-7.8-8.2v0c0.1-4.4,3.8-7.9,8.1-7.8
				c4.4,0.1,7.9,3.7,7.8,8.2c-0.1,4.3-3.7,7.8-8,7.8H326.5z M178.1,246.8c-4.3-0.8-7.2-4.9-6.5-9.2c0.7-4.3,4.9-7.2,9.2-6.5
				c4.3,0.8,7.2,4.9,6.5,9.2c-0.7,3.9-4,6.6-7.8,6.6C179.1,246.9,178.6,246.9,178.1,246.8 M316.2,233.6c-1.2-4.2,1.3-8.6,5.5-9.8
				c4.2-1.2,8.6,1.3,9.8,5.5c1.2,4.2-1.3,8.6-5.5,9.8c-0.7,0.2-1.4,0.3-2.2,0.3C320.4,239.4,317.2,237.1,316.2,233.6 M182.8,225.1
				c-3.9-2-5.5-6.8-3.5-10.7c2-3.9,6.8-5.5,10.7-3.5c3.9,2,5.5,6.8,3.5,10.7c-1.4,2.8-4.2,4.3-7.1,4.3
				C185.2,225.9,184,225.7,182.8,225.1 M308.1,215.7L308.1,215.7c-2.4-3.7-1.4-8.6,2.3-11c3.7-2.4,8.6-1.3,11,2.3
				c2.4,3.7,1.4,8.6-2.3,11c-1.3,0.9-2.8,1.3-4.3,1.3C312.1,219.3,309.6,218,308.1,215.7 M193.8,205.7c-3.2-3.1-3.2-8.1-0.1-11.3
				c3.1-3.2,8.1-3.2,11.3-0.2c3.2,3.1,3.2,8.1,0.2,11.3c-1.6,1.6-3.6,2.4-5.7,2.4C197.4,208,195.3,207.2,193.8,205.7 M295,200.9
				c-3.4-2.8-3.8-7.9-1-11.2c2.8-3.4,7.9-3.8,11.2-1c3.4,2.8,3.8,7.9,1,11.2c-1.6,1.9-3.8,2.9-6.1,2.9
				C298.3,202.7,296.4,202.1,295,200.9 M210,190.5c-2.1-3.9-0.7-8.7,3.2-10.8c3.9-2.1,8.7-0.7,10.8,3.2c2.1,3.9,0.7,8.7-3.1,10.8
				c-1.2,0.7-2.5,1-3.8,1C214.1,194.6,211.4,193.1,210,190.5 M278.1,190.6c-4.1-1.7-6-6.4-4.3-10.4c1.7-4.1,6.4-6,10.4-4.3
				c4.1,1.7,6,6.4,4.3,10.4c-1.3,3.1-4.2,4.9-7.3,4.9C280.2,191.3,279.1,191,278.1,190.6 M229.9,180.6c-0.9-4.3,1.9-8.5,6.2-9.4
				c4.3-0.9,8.5,1.9,9.4,6.2c0.9,4.3-1.9,8.5-6.2,9.4c-0.5,0.1-1.1,0.2-1.6,0.2C234,187,230.7,184.4,229.9,180.6 M259,185.8
				c-4.4-0.4-7.6-4.3-7.2-8.7c0.4-4.4,4.3-7.6,8.7-7.1c4.4,0.4,7.6,4.3,7.2,8.7c-0.4,4.1-3.9,7.2-7.9,7.2
				C259.5,185.9,259.3,185.8,259,185.8"/>
			<path class="st16" d="M249.6,311.2L249.6,311.2c-4.4-0.2-7.8-4-7.6-8.3c0.2-4.4,4-7.8,8.4-7.6c4.4,0.2,7.8,4,7.6,8.4
				c-0.2,4.3-3.7,7.6-8,7.6C249.9,311.2,249.7,311.2,249.6,311.2 M261.2,303.2c-1.4-4.2,0.9-8.7,5.1-10.1c4.2-1.4,8.7,0.9,10.1,5.1
				c1.4,4.2-0.9,8.7-5.1,10.1c-0.8,0.3-1.7,0.4-2.5,0.4C265.4,308.6,262.3,306.5,261.2,303.2 M228.3,306.1L228.3,306.1
				c-4-1.8-5.8-6.5-4.1-10.5c1.8-4,6.5-5.8,10.5-4c4,1.8,5.8,6.5,4,10.5c-1.3,3-4.2,4.7-7.3,4.7
				C230.5,306.8,229.4,306.6,228.3,306.1 M279.2,296.6c-2.8-3.4-2.3-8.4,1.1-11.2c3.4-2.8,8.4-2.3,11.2,1.1
				c2.8,3.4,2.3,8.4-1.1,11.2c-1.5,1.2-3.3,1.8-5.1,1.8C283.1,299.5,280.8,298.5,279.2,296.6 M210.3,293.7
				C210.3,293.7,210.3,293.6,210.3,293.7c-0.1-0.1-0.2-0.1-0.2-0.2c-3.1-3.1-3-8.2,0.1-11.3c3.1-3.1,8.2-3,11.3,0.1
				c0,0,0.1,0.1,0.1,0.1c0,0,0,0,0,0c3.1,3.1,3.1,8.2,0,11.3c-1.6,1.5-3.6,2.3-5.6,2.3C213.9,296,211.9,295.2,210.3,293.7
				 M293.6,283.9c-3.8-2.2-5.2-7-3-10.9c2.2-3.8,7-5.2,10.9-3c3.8,2.1,5.2,7,3,10.9c-1.5,2.6-4.2,4.1-7,4.1
				C296.2,284.9,294.8,284.6,293.6,283.9 M197.9,275.4c-1.7-4,0.1-8.7,4.1-10.5c4.1-1.7,8.7,0.1,10.5,4.2h0c1.8,4-0.1,8.7-4.1,10.5
				c-1,0.4-2.1,0.7-3.2,0.7C202.1,280.2,199.2,278.4,197.9,275.4 M302.5,266.9c-4.4-0.6-7.4-4.7-6.7-9c0.6-4.4,4.7-7.4,9-6.8
				c4.4,0.6,7.4,4.7,6.8,9c-0.6,4-4,6.8-7.9,6.8C303.2,267,302.9,267,302.5,266.9 M193,254c-0.2-4.4,3.3-8.1,7.7-8.3
				c4.4-0.2,8.1,3.3,8.3,7.7c0.2,4.4-3.3,8.1-7.7,8.3c-0.1,0-0.2,0-0.3,0C196.7,261.7,193.2,258.3,193,254 M295.1,241.9L295.1,241.9
				c-1-4.3,1.7-8.6,6-9.6c4.3-1,8.6,1.7,9.6,6c1,4.3-1.7,8.6-6,9.6c-0.6,0.1-1.2,0.2-1.8,0.2C299.2,248,295.9,245.6,295.1,241.9
				 M201.1,242.5c-4.2-1.4-6.4-5.9-5-10.1c1.4-4.2,5.9-6.4,10.1-5c4.2,1.4,6.4,5.9,5,10.1c-1.1,3.3-4.2,5.4-7.5,5.4
				C202.8,242.9,202,242.8,201.1,242.5 M288.7,227.2L288.7,227.2c-2.5-3.6-1.5-8.6,2.1-11.1c3.6-2.5,8.6-1.5,11.1,2.1
				c2.5,3.7,1.5,8.6-2.1,11.1c-1.4,0.9-2.9,1.4-4.5,1.4C292.7,230.7,290.2,229.5,288.7,227.2 M207.9,224.6c-3.4-2.8-3.8-7.9-1-11.2
				c2.8-3.4,7.9-3.8,11.2-1c3.4,2.8,3.8,7.9,1,11.2c-1.6,1.9-3.8,2.8-6.1,2.8C211.2,226.4,209.4,225.8,207.9,224.6 M277.4,215.8
				L277.4,215.8c-3.6-2.5-4.5-7.5-2-11.1c2.5-3.6,7.5-4.5,11.1-2c3.6,2.5,4.5,7.5,2,11.1c-1.5,2.2-4,3.4-6.6,3.4
				C280.3,217.2,278.8,216.8,277.4,215.8 M220.7,210.3c-2.1-3.9-0.7-8.7,3.1-10.8c3.9-2.1,8.7-0.7,10.8,3.1
				c2.1,3.9,0.7,8.7-3.1,10.8c-1.2,0.7-2.5,1-3.8,1C224.9,214.4,222.2,212.9,220.7,210.3 M262.8,209.3L262.8,209.3
				c-4.3-1-6.9-5.3-5.9-9.6c1-4.3,5.3-6.9,9.6-5.9c4.3,1,6.9,5.3,5.9,9.6c-0.9,3.7-4.1,6.1-7.8,6.1
				C264,209.5,263.4,209.4,262.8,209.3 M237.8,201.6c-0.6-4.4,2.5-8.4,6.8-8.9c4.4-0.6,8.4,2.5,8.9,6.9c0.6,4.4-2.5,8.4-6.8,8.9
				c-0.4,0-0.7,0.1-1.1,0.1C241.8,208.5,238.3,205.6,237.8,201.6"/>
		</g>
	</g>
</g>
</svg>
