<?xml version="1.0" encoding="utf-8"?>
<!-- Generator: Adobe Illustrator 19.2.1, SVG Export Plug-In . SVG Version: 6.00 Build 0)  -->
<svg version="1.1" id="Layer_1" xmlns="http://www.w3.org/2000/svg" xmlns:xlink="http://www.w3.org/1999/xlink" x="0px" y="0px"
	 width="400px" height="125px" viewBox="0 0 400 125" style="enable-background:new 0 0 400 125;" xml:space="preserve">
<style type="text/css">
	.st0{fill:none;}
	.st1{opacity:0.6;}
	.st2{fill:#FFFFFF;}
	.st3{opacity:0.5;}
	.st4{opacity:0.4;}
	.st5{opacity:0.3;}
	.st6{opacity:0.2;}
	.st7{opacity:0.1;}
</style>
<title>Radiance_home</title>
<line class="st0" x1="-82.4" y1="-0.1" x2="-88.6" y2="-0.1"/>
<g>
	<g class="st1">
		<path class="st2" d="M251.9,0c-0.3,0.5-0.7,0.9-1.2,1.3c-2.6,2-6.4,1.5-8.4-1.1c-0.1-0.1-0.1-0.1-0.1-0.2C242.2,0,251.9,0,251.9,0
			z"/>
		<path class="st2" d="M236,8.1c-2.9,1.5-6.5,0.4-8.1-2.5c-0.9-1.8-0.9-3.9,0-5.6h10.6C240,2.9,238.9,6.5,236,8.1z"/>
		<path class="st2" d="M212.7,8.4c1,3.1,4.4,4.8,7.6,3.8c3.1-1.1,4.8-4.5,3.8-7.6s-4.5-4.8-7.6-3.8C213.4,1.9,211.7,5.3,212.7,8.4z"
			/>
		<path class="st2" d="M197.5,8.7c0.5,3.3,3.6,5.5,6.9,5c3.3-0.5,5.5-3.6,5-6.9s-3.6-5.5-6.9-5C199.2,2.4,196.9,5.5,197.5,8.7z"/>
		<path class="st2" d="M182.2,6.5c0,3.3,2.6,6,6,6c3.3,0,6-2.6,6-6c0-3.3-2.6-6-6-6C184.9,0.6,182.2,3.2,182.2,6.5z"/>
		<path class="st2" d="M179.4,3.9c-0.5,3.3-3.6,5.5-6.9,4.9c-3.3-0.6-5.4-3.7-4.9-6.9c0.1-0.7,0.3-1.3,0.6-1.9h10.5
			C179.4,1.2,179.6,2.5,179.4,3.9z"/>
		<path class="st2" d="M164.7,0c-1.5,2.4-4.5,3.5-7.1,2.5c-1.3-0.5-2.4-1.4-3.1-2.5H164.7z"/>
	</g>
	<g class="st3">
		<path class="st2" d="M283.3,0c-0.3,0.6-0.8,1.1-1.3,1.6c-2.5,2.3-6.3,2.1-8.5-0.4c-0.3-0.4-0.6-0.8-0.8-1.2H283.3z"/>
		<path class="st2" d="M258.5,11.7c1.8,2.8,5.5,3.6,8.3,1.8s3.6-5.5,1.8-8.3c-1.8-2.8-5.5-3.6-8.3-1.8S256.7,8.9,258.5,11.7z"/>
		<path class="st2" d="M242,19.5c1.3,3,4.8,4.5,7.9,3.2c3-1.3,4.5-4.8,3.2-7.9c-1.3-3-4.8-4.5-7.9-3.2
			C242.2,12.9,240.8,16.5,242,19.5z"/>
		<path class="st2" d="M224.5,24.5c0.8,3.2,4,5.2,7.2,4.4s5.2-4,4.4-7.2s-4-5.2-7.2-4.4C225.7,18,223.7,21.2,224.5,24.5z"/>
		<path class="st2" d="M206.4,26.5c0.2,3.3,3.1,5.8,6.4,5.6c3.3-0.2,5.8-3.1,5.6-6.4s-3.1-5.8-6.4-5.6
			C208.6,20.3,206.1,23.2,206.4,26.5z"/>
		
			<ellipse transform="matrix(9.395554e-02 -0.9956 0.9956 9.395554e-02 149.8719 216.7719)" class="st2" cx="194" cy="26" rx="6" ry="6"/>
		<path class="st2" d="M174.5,28.8c3.2,0.9,6.5-1.1,7.3-4.2c0.9-3.2-1.1-6.5-4.2-7.3c-3.2-0.9-6.5,1.1-7.3,4.3
			C169.4,24.7,171.3,28,174.5,28.8z"/>
		<path class="st2" d="M156.3,22.6c3,1.4,6.6,0,7.9-3c1.4-3,0-6.6-3-7.9c-3-1.4-6.6,0-7.9,3C152,17.7,153.3,21.2,156.3,22.6z"/>
		<path class="st2" d="M139.4,13.5c2.7,1.8,6.5,1.1,8.3-1.6s1.1-6.5-1.6-8.3c-2.7-1.8-6.5-1.1-8.3,1.6
			C135.9,7.9,136.6,11.6,139.4,13.5z"/>
		<path class="st2" d="M133.6,0c-0.2,0.5-0.6,0.9-0.9,1.3c-2.3,2.5-6.1,2.6-8.5,0.3c-0.5-0.5-0.9-1-1.2-1.6C123,0,133.6,0,133.6,0z"
			/>
	</g>
	<g class="st4">
		<path class="st2" d="M300,8.3c-2.5,2.2-6.3,2-8.5-0.5c-2-2.2-2-5.6-0.1-7.8h9.2C302.7,2.5,302.4,6.2,300,8.3z"/>
		<ellipse transform="matrix(0.8442 -0.5361 0.5361 0.8442 34.0742 152.9965)" class="st2" cx="280.2" cy="17.9" rx="6" ry="6"/>
		<path class="st2" d="M256.9,31.5c1.3,3,4.8,4.5,7.9,3.2c3-1.3,4.5-4.8,3.2-7.9c-1.3-3-4.8-4.5-7.9-3.2S255.6,28.4,256.9,31.5z"/>
		<path class="st2" d="M237,38.8c0.8,3.2,4,5.2,7.2,4.4s5.2-4,4.4-7.2s-4-5.2-7.2-4.4C238.2,32.3,236.2,35.6,237,38.8z"/>
		<path class="st2" d="M216.4,42.7c0.2,3.3,3.1,5.8,6.4,5.6c3.3-0.2,5.8-3.1,5.6-6.4c-0.2-3.3-3.1-5.8-6.4-5.6
			C218.7,36.5,216.2,39.4,216.4,42.7z"/>
		<path class="st2" d="M195.3,43.1c-0.3,3.3,2.1,6.2,5.4,6.5c3.3,0.3,6.2-2.1,6.5-5.4c0.3-3.3-2.1-6.2-5.4-6.5
			S195.6,39.8,195.3,43.1z"/>
		<path class="st2" d="M178.7,47.4c3.2,0.9,6.5-1.1,7.3-4.3c0.9-3.2-1.1-6.5-4.3-7.3c-3.2-0.9-6.5,1.1-7.3,4.2
			C173.6,43.3,175.5,46.5,178.7,47.4z"/>
		<path class="st2" d="M157.5,41.6c3,1.4,6.6,0,7.9-3c1.4-3,0-6.6-3-7.9c-3-1.4-6.6,0-7.9,3C153.2,36.7,154.5,40.2,157.5,41.6z"/>
		<path class="st2" d="M137.4,32.3c2.7,1.8,6.5,1.1,8.3-1.6c1.8-2.8,1.1-6.5-1.6-8.3c-2.8-1.8-6.5-1.1-8.3,1.6
			C133.9,26.7,134.6,30.5,137.4,32.3z"/>
		<path class="st2" d="M119.1,20c2.4,2.3,6.2,2.2,8.5-0.3c2.3-2.4,2.2-6.2-0.3-8.5c-2.4-2.3-6.2-2.2-8.5,0.3
			C116.6,13.9,116.7,17.7,119.1,20z"/>
		<path class="st2" d="M111.6,5.9c-2.6,2-6.4,1.4-8.4-1.2c-1.1-1.4-1.4-3.1-1.1-4.7h11.8C114.3,2.2,113.4,4.5,111.6,5.9z"/>
	</g>
	<g class="st5">
		<path class="st2" d="M312.7,12.6c2.6,2.1,6.4,1.6,8.4-0.9c2.1-2.6,1.6-6.4-0.9-8.4c-2.6-2.1-6.4-1.6-8.4,0.9
			C309.7,6.8,310.1,10.5,312.7,12.6z"/>
		<path class="st2" d="M295.3,29.2c2.2,2.5,6,2.7,8.5,0.5s2.7-6,0.5-8.5s-6-2.7-8.5-0.5S293.1,26.7,295.3,29.2z"/>
		<path class="st2" d="M275.4,42.9c1.8,2.8,5.5,3.6,8.3,1.8s3.6-5.5,1.8-8.3c-1.8-2.8-5.5-3.6-8.3-1.8
			C274.5,36.4,273.6,40.1,275.4,42.9z"/>
		<path class="st2" d="M253.5,53c1.3,3,4.8,4.5,7.9,3.2s4.5-4.8,3.2-7.9c-1.3-3-4.8-4.5-7.9-3.2C253.6,46.4,252.2,49.9,253.5,53z"/>
		<path class="st2" d="M230.3,59.4c0.8,3.2,4,5.2,7.2,4.4s5.2-4,4.4-7.2s-4-5.2-7.2-4.4C231.5,52.9,229.5,56.2,230.3,59.4z"/>
		<path class="st2" d="M206.3,61.9c0.2,3.3,3.1,5.8,6.4,5.6c3.3-0.2,5.8-3.1,5.6-6.4c-0.2-3.3-3.1-5.8-6.4-5.6
			C208.5,55.7,206,58.5,206.3,61.9z"/>
		<path class="st2" d="M182.2,60.4c-0.3,3.3,2.1,6.2,5.4,6.5s6.2-2.1,6.5-5.4c0.3-3.3-2.1-6.2-5.4-6.5
			C185.5,54.7,182.5,57.1,182.2,60.4z"/>
		<ellipse transform="matrix(0.2571 -0.9664 0.9664 0.2571 67.4919 200.8891)" class="st2" cx="164.4" cy="56.5" rx="6" ry="6"/>
		<path class="st2" d="M139.4,53.7c3,1.4,6.6,0,7.9-3c1.4-3,0-6.6-3-7.9c-3-1.4-6.6,0-7.9,3C135,48.8,136.4,52.3,139.4,53.7z"/>
		<path class="st2" d="M117.5,41.3c2.7,1.8,6.5,1.1,8.3-1.6c1.8-2.8,1.1-6.5-1.6-8.3c-2.8-1.8-6.5-1.1-8.3,1.6
			C114,35.7,114.8,39.5,117.5,41.3z"/>
		<path class="st2" d="M98.2,25.5c2.4,2.3,6.2,2.2,8.5-0.3c2.3-2.4,2.2-6.2-0.3-8.5c-2.4-2.3-6.2-2.2-8.5,0.3
			C95.6,19.5,95.8,23.2,98.2,25.5z"/>
		<path class="st2" d="M89.9,7.9c-2.6,2-6.4,1.5-8.4-1.1C80,4.7,79.9,2,81.2,0h10.2C93,2.6,92.3,6,89.9,7.9z"/>
	</g>
	<g class="st6">
		<path class="st2" d="M335.5,14.6c2.9,1.6,6.5,0.6,8.1-2.3s0.6-6.6-2.3-8.2s-6.6-0.6-8.1,2.3C331.6,9.3,332.6,13,335.5,14.6z"/>
		<path class="st2" d="M317.5,35.1c2.6,2.1,6.4,1.6,8.4-1c2.1-2.6,1.6-6.4-1-8.4c-2.6-2.1-6.4-1.6-8.4,1
			C314.5,29.2,314.9,33,317.5,35.1z"/>
		<path class="st2" d="M296.3,52.2c2.2,2.4,6,2.7,8.5,0.4c2.5-2.2,2.7-6,0.4-8.5c-2.2-2.5-6-2.7-8.5-0.4
			C294.2,45.9,294.1,49.7,296.3,52.2z"/>
		<path class="st2" d="M272.7,65.7c1.8,2.8,5.5,3.6,8.3,1.8c2.8-1.8,3.6-5.5,1.8-8.3c-1.8-2.8-5.5-3.6-8.3-1.8
			S270.9,62.9,272.7,65.7z"/>
		<path class="st2" d="M247,75c1.3,3,4.8,4.5,7.9,3.2c3-1.3,4.5-4.8,3.2-7.9c-1.3-3-4.8-4.5-7.9-3.2C247.1,68.4,245.7,72,247,75z"/>
		<path class="st2" d="M220.2,80.1c0.8,3.2,4,5.2,7.2,4.4c3.2-0.8,5.2-4,4.4-7.2s-4-5.2-7.2-4.4S219.4,76.9,220.2,80.1z"/>
		<path class="st2" d="M192.9,80.7c0.2,3.3,3.1,5.8,6.4,5.5c3.3-0.3,5.8-3.1,5.6-6.4c-0.3-3.3-3.1-5.8-6.4-5.5
			C195.2,74.5,192.7,77.4,192.9,80.7z"/>
		<path class="st2" d="M166,76.7c-0.3,3.3,2.1,6.2,5.4,6.5c3.3,0.3,6.2-2.1,6.5-5.4s-2.1-6.2-5.4-6.5C169.2,71,166.3,73.4,166,76.7z
			"/>
		<path class="st2" d="M144.3,75.7c3.2,0.9,6.5-1.1,7.3-4.3s-1.1-6.5-4.3-7.3c-3.2-0.8-6.5,1.1-7.3,4.3S141.1,74.9,144.3,75.7z"/>
		<ellipse transform="matrix(0.41 -0.9121 0.9121 0.41 18.1957 144.9769)" class="st2" cx="121.2" cy="58.4" rx="6" ry="6"/>
		<path class="st2" d="M95.6,47.9c2.8,1.8,6.5,1.1,8.3-1.7s1.1-6.5-1.7-8.3c-2.8-1.8-6.5-1.1-8.3,1.7S92.8,46.1,95.6,47.9z"/>
		<path class="st2" d="M75.4,28.5c2.4,2.3,6.2,2.1,8.5-0.3s2.1-6.2-0.3-8.5s-6.2-2.1-8.5,0.3C72.8,22.4,72.9,26.2,75.4,28.5z"/>
		<path class="st2" d="M66.9,7c-2.6,2-6.4,1.5-8.4-1.1c-1.3-1.8-1.5-4-0.8-5.9h11.1C69.8,2.4,69,5.3,66.9,7z"/>
	</g>
	<g class="st7">
		<path class="st2" d="M359.4,16.1c3.1,1.1,6.6-0.5,7.7-3.6s-0.5-6.6-3.6-7.7s-6.6,0.5-7.7,3.6C354.6,11.6,356.2,15,359.4,16.1z"/>
		<path class="st2" d="M340.7,40.4c2.9,1.6,6.5,0.6,8.1-2.3c1.6-2.9,0.6-6.6-2.3-8.1c-2.9-1.6-6.6-0.6-8.1,2.3
			C336.8,35.1,337.8,38.8,340.7,40.4z"/>
		<path class="st2" d="M318.3,61.3c2.6,2.1,6.4,1.6,8.4-1c2.1-2.6,1.6-6.4-1-8.4c-2.6-2.1-6.4-1.6-8.4,1S315.7,59.2,318.3,61.3z"/>
		<ellipse transform="matrix(0.7422 -0.6702 0.6702 0.7422 26.8605 218.4029)" class="st2" cx="297.3" cy="74.3" rx="6" ry="6"/>
		<path class="st2" d="M264.9,90.8c1.8,2.8,5.5,3.6,8.3,1.8c2.8-1.8,3.6-5.5,1.8-8.3c-1.8-2.8-5.5-3.6-8.3-1.8
			C263.9,84.3,263.1,88,264.9,90.8z"/>
		<path class="st2" d="M235.2,98.6c1.3,3,4.8,4.5,7.9,3.2c3-1.3,4.5-4.8,3.2-7.9c-1.3-3-4.8-4.5-7.9-3.2
			C235.4,92,233.9,95.6,235.2,98.6z"/>
		<path class="st2" d="M204.7,101.3c0.8,3.2,4,5.2,7.2,4.4c3.2-0.8,5.2-4,4.4-7.2s-4-5.2-7.2-4.4S203.9,98.1,204.7,101.3z"/>
		<path class="st2" d="M174.2,99.1c0.2,3.3,3.1,5.8,6.4,5.5c3.3-0.2,5.8-3.1,5.5-6.4c-0.2-3.3-3.1-5.8-6.4-5.5
			C176.5,92.9,174,95.8,174.2,99.1z"/>
		<path class="st2" d="M144.4,91.8c-0.3,3.3,2.1,6.2,5.4,6.5c3.3,0.3,6.2-2.1,6.5-5.4s-2.1-6.2-5.4-6.5S144.7,88.5,144.4,91.8z"/>
		<path class="st2" d="M120.5,87.1c3.2,0.8,6.5-1.1,7.3-4.3c0.9-3.2-1.1-6.5-4.3-7.3c-3.2-0.9-6.5,1.1-7.3,4.3
			C115.4,83,117.3,86.3,120.5,87.1z"/>
		<path class="st2" d="M93.4,71.2c3,1.4,6.6,0,7.9-3c1.4-3,0-6.6-3-7.9c-3-1.4-6.6,0-7.9,3C89.1,66.3,90.4,69.8,93.4,71.2z"/>
		<path class="st2" d="M69.4,50.9c2.8,1.8,6.5,1.1,8.3-1.7s1.1-6.5-1.7-8.3c-2.8-1.8-6.5-1.1-8.3,1.7S66.7,49.1,69.4,50.9z"/>
		<path class="st2" d="M49,27.1c2.4,2.3,6.2,2.1,8.5-0.3s2.1-6.2-0.3-8.5s-6.2-2.1-8.5,0.3C46.4,21.1,46.5,24.9,49,27.1z"/>
		<path class="st2" d="M42.5,0c-0.3,0.5-0.8,1-1.3,1.4c-2.6,2-6.4,1.5-8.4-1.1c-0.1-0.1-0.2-0.2-0.2-0.3C32.6,0,42.5,0,42.5,0z"/>
	</g>
</g>
</svg>
