<?xml version="1.0" encoding="UTF-8"?>
<svg width="128px" height="53px" viewBox="0 0 128 53" version="1.1" xmlns="http://www.w3.org/2000/svg" xmlns:xlink="http://www.w3.org/1999/xlink">
    <!-- Generator: Sketch 50 (54983) - http://www.bohemiancoding.com/sketch -->
    <title>sas-logo-midnight</title>
    <desc>Created with Sketch.</desc>
    <defs></defs>
    <g id="Designs" stroke="none" stroke-width="1" fill="none" fill-rule="evenodd">
        <g id="Option-A" transform="translate(-576.000000, -241.000000)" fill="#FFFFFF">
            <g id="sas-logo-midnight" transform="translate(576.000000, 240.000000)">
                <path d="M45.3576704,31.323136 C45.5440384,36.432896 49.6707584,38.045696 54.0473344,38.045696 C57.3630464,38.045696 61.8635264,37.239808 61.8635264,32.869376 C61.8635264,28.43136 56.6134784,27.691008 51.2968704,26.41408 C46.0447744,25.136128 40.7302144,23.252992 40.7302144,16.595968 C40.7302144,9.603072 47.1701504,6.711296 52.7980544,6.711296 C59.9281664,6.711296 65.6185344,9.133056 66.0547584,17.605632 L60.7391744,17.605632 C60.3633664,13.167616 56.7384064,11.754496 53.2342784,11.754496 C50.0465664,11.754496 46.3560704,12.6976 46.3560704,16.19456 C46.3560704,20.29568 51.9860224,20.968448 56.9257984,22.244352 C62.2393344,23.523328 67.4934784,25.404416 67.4934784,32.129024 C67.4934784,40.40192 60.3029504,43.08992 53.7360384,43.08992 C46.4820224,43.08992 40.3544064,39.928832 40.0420864,31.323136 L45.3576704,31.323136 Z" id="Fill-1"></path>
                <path d="M98.883584,37.7105408 C98.19648,37.9798528 97.695744,38.0464128 97.258496,38.0464128 C95.568896,38.0464128 95.568896,36.8370688 95.568896,34.1470208 L95.568896,16.2608128 C95.568896,8.1251328 89.255936,6.7109888 83.44064,6.7109888 C76.24704,6.7109888 70.055936,9.7379328 69.743616,18.3446528 L75.058176,18.3446528 C75.31008,13.2359168 78.623744,11.7541888 83.126272,11.7541888 C86.504448,11.7541888 90.315776,12.5631488 90.315776,17.5387648 C90.315776,21.8416128 85.316608,21.4391808 79.435776,22.6505728 C73.934848,23.7923328 68.49536,25.4727168 68.49536,33.3401088 C68.49536,40.2674688 73.309184,43.0896128 79.188992,43.0896128 C83.687424,43.0896128 87.627776,41.4082048 90.566656,37.7105408 C90.566656,41.4757888 92.319744,43.0896128 95.072256,43.0896128 C96.75776,43.0896128 97.9456,42.7537408 98.883584,42.1485568 L98.883584,37.7105408 Z M90.25536,30.1800448 C90.25536,33.3401088 87.37792,38.0464128 80.37376,38.0464128 C77.123584,38.0464128 74.121216,36.7019008 74.121216,32.9366528 C74.121216,28.6993408 77.123584,27.3568768 80.623616,26.6841088 C84.18816,26.0092928 88.193024,25.9437568 90.25536,24.3309568 L90.25536,30.1800448 Z" id="Fill-3"></path>
                <path d="M103.819776,31.323136 C104.006144,36.432896 108.132864,38.045696 112.50944,38.045696 C115.823104,38.045696 120.325632,37.239808 120.325632,32.869376 C120.325632,28.43136 115.075584,27.691008 109.757952,26.41408 C104.50688,25.136128 99.189248,23.252992 99.189248,16.595968 C99.189248,9.603072 105.631232,6.711296 111.26016,6.711296 C118.390272,6.711296 124.079616,9.133056 124.51584,17.605632 L119.20128,17.605632 C118.825472,13.167616 115.19744,11.754496 111.697408,11.754496 C108.508672,11.754496 104.817152,12.6976 104.817152,16.19456 C104.817152,20.29568 110.448128,20.968448 115.38688,22.244352 C120.70144,23.523328 125.955584,25.404416 125.955584,32.129024 C125.955584,40.40192 118.761984,43.08992 112.19712,43.08992 C104.944128,43.08992 98.81344,39.928832 98.502144,31.323136 L103.819776,31.323136 Z" id="Fill-5"></path>
                <path d="M22.4693248,16.4591616 L30.5394688,26.2045696 C41.4010368,39.3844736 31.4692608,50.8112896 22.5799168,53.0323456 C12.3307008,55.5954176 3.0594048,50.2644736 0.2956288,42.1103616 C3.8601728,47.9205376 14.2097408,49.1800576 19.8468608,45.6411136 C26.2437888,41.6229376 28.3542528,34.5686016 23.6366848,28.8423936 C23.6366848,28.8423936 19.8540288,24.2907136 17.0390528,20.9074176 L17.0656768,20.9401856 C16.8107008,20.6309376 16.6642688,20.4548096 16.6632448,20.4527616 C15.4395648,18.9700096 15.8757888,16.9445376 17.3616128,15.7208576 C18.8371968,14.5043456 20.8370688,14.4971776 22.0658688,15.9584256 L22.9506048,17.0264576" id="Fill-7"></path>
                <path d="M11.399168,36.343808 L13.233152,38.559744 C14.461952,40.020992 16.461824,40.010752 17.939456,38.79424 C19.423232,37.57056 19.861504,35.547136 18.637824,34.061312 C18.632704,34.05824 17.913856,33.190912 16.869376,31.937536 L17.913856,33.155072 C15.173632,29.858816 11.828224,25.837568 11.828224,25.837568 C7.110656,20.113408 9.222144,13.056 15.619072,9.037824 C21.254144,5.497856 31.604736,6.757376 35.16928,12.570624 C32.40448,4.41344 23.134208,-0.914432 12.886016,1.646592 C3.994624,3.866624 -5.936128,15.291392 4.92544,28.474368 L12.622848,37.769216" id="Fill-9"></path>
                <path d="M125.004186,42.0527104 L125.004186,41.3164544 L125.492634,41.3164544 C125.74249,41.3164544 126.00873,41.3686784 126.00873,41.6656384 C126.00873,42.0271104 125.740442,42.0527104 125.434266,42.0527104 L125.004186,42.0527104 Z M125.004186,42.3517184 L125.415834,42.3517184 L126.041498,43.3808384 L126.444954,43.3808384 L125.771162,42.3363584 C126.119322,42.2964224 126.386586,42.1110784 126.386586,41.6850944 C126.386586,41.2181504 126.110106,41.0123264 125.54793,41.0123264 L124.64681,41.0123264 L124.64681,43.3808384 L125.004186,43.3808384 L125.004186,42.3517184 Z M125.441434,44.2471424 C126.558618,44.2471424 127.518106,43.3808384 127.518106,42.1919744 C127.518106,41.0123264 126.558618,40.1409024 125.441434,40.1409024 C124.309914,40.1409024 123.350426,41.0123264 123.350426,42.1919744 C123.350426,43.3808384 124.309914,44.2471424 125.441434,44.2471424 Z M123.767194,42.1919744 C123.767194,41.2181504 124.497306,40.4859904 125.441434,40.4859904 C126.36713,40.4859904 127.103386,41.2181504 127.103386,42.1919744 C127.103386,43.1780864 126.36713,43.9092224 125.441434,43.9092224 C124.497306,43.9092224 123.767194,43.1780864 123.767194,42.1919744 Z" id="Fill-11"></path>
                <path d="M37.7242624,42.0527104 L37.7242624,41.3164544 L38.2127104,41.3164544 C38.4625664,41.3164544 38.7277824,41.3686784 38.7277824,41.6656384 C38.7277824,42.0271104 38.4605184,42.0527104 38.1533184,42.0527104 L37.7242624,42.0527104 Z M37.7242624,42.3517184 L38.1359104,42.3517184 L38.7615744,43.3808384 L39.1650304,43.3808384 L38.4902144,42.3363584 C38.8393984,42.2964224 39.1066624,42.1110784 39.1066624,41.6850944 C39.1066624,41.2181504 38.8301824,41.0123264 38.2659584,41.0123264 L37.3648384,41.0123264 L37.3648384,43.3808384 L37.7242624,43.3808384 L37.7242624,42.3517184 Z M38.1594624,44.2471424 C39.2786944,44.2471424 40.2381824,43.3808384 40.2381824,42.1919744 C40.2381824,41.0123264 39.2786944,40.1409024 38.1594624,40.1409024 C37.0299904,40.1409024 36.0705024,41.0123264 36.0705024,42.1919744 C36.0705024,43.3808384 37.0299904,44.2471424 38.1594624,44.2471424 Z M36.4852224,42.1919744 C36.4852224,41.2181504 37.2163584,40.4859904 38.1594624,40.4859904 C39.0872064,40.4859904 39.8234624,41.2181504 39.8234624,42.1919744 C39.8234624,43.1780864 39.0872064,43.9092224 38.1594624,43.9092224 C37.2163584,43.9092224 36.4852224,43.1780864 36.4852224,42.1919744 Z" id="Fill-13"></path>
            </g>
        </g>
    </g>
</svg>