<?xml version="1.0" encoding="utf-8"?>
<!-- Generator: Adobe Illustrator 22.1.0, SVG Export Plug-In . SVG Version: 6.00 Build 0)  -->
<svg version="1.1" id="statusIcon" xmlns="http://www.w3.org/2000/svg" xmlns:xlink="http://www.w3.org/1999/xlink" x="0px" y="0px"
	 width="14px" height="14px" viewBox="0 0 14 14" enable-background="new 0 0 14 14" xml:space="preserve">
<rect id="svgToolTipPane" fill="none" width="14" height="14"/>
<path id="WarningStatus" fill="#FFB72B" d="M13.935,12.087L8.408,1C8.063,0.328,7.652,0,7,0S5.799,0.417,5.592,1L0.065,12.087
	C0.027,12.219,0,12.356,0,12.5C0,13.33,0.672,14,1.5,14h11c0.828,0,1.5-0.671,1.5-1.5C14,12.356,13.973,12.219,13.935,12.087z
	 M12.5,13h-11C1.225,13,1,12.775,1,12.5c0-0.012,0.002-0.032,0.008-0.064l5.478-10.99C6.505,1.41,6.521,1.373,6.534,1.335
	C6.606,1.131,6.789,1,7,1c0.158,0,0.283,0,0.519,0.458l5.474,10.978C12.998,12.467,13,12.487,13,12.5C13,12.775,12.775,13,12.5,13z
	 M7,9C6.586,9,6.25,8.664,6.25,8.25v-3.5C6.25,4.336,6.586,4,7,4s0.75,0.336,0.75,0.75v3.5C7.75,8.664,7.414,9,7,9z M8,11
	c0,0.552-0.448,1-1,1s-1-0.448-1-1s0.448-1,1-1S8,10.448,8,11z"/>
</svg>
